<svg width="56" height="64" viewBox="0 0 56 64" fill="none" xmlns="http://www.w3.org/2000/svg">
<g clip-path="url(#clip0_887_2936)">
<path d="M9.1708 26.3087C9.9748 0.6167 45.6388 0.771366 46.4375 26.3087C47.8095 70.3514 7.79746 70.358 9.1708 26.3087Z" stroke="#0B3CFF" stroke-width="3" stroke-miterlimit="22.9256" stroke-linecap="round"/>
<path d="M26.8561 42.5924C26.8561 40.2164 24.9281 38.2871 22.5495 38.2871C20.1721 38.2871 18.2441 40.2164 18.2441 42.5924C18.2441 44.9711 20.1708 46.8978 22.5495 46.8978C24.9281 46.8991 26.8561 44.9724 26.8561 42.5924Z" stroke="#0B3CFF" stroke-width="3" stroke-miterlimit="22.9256" stroke-linecap="round"/>
<path d="M5.13867 20.1654C7.12267 9.18269 16.684 1.19336 27.844 1.19336C38.8413 1.19336 48.3107 8.95603 50.4693 19.7414" stroke="#0B3CFF" stroke-width="3" stroke-miterlimit="22.9256" stroke-linecap="round"/>
<path d="M46.3721 19.7051H48.2441C51.3774 19.7051 53.9414 22.2704 53.9414 25.4037V30.3611C53.9414 33.4957 51.3761 36.0584 48.2441 36.0584H46.3721" stroke="#0B3CFF" stroke-width="3" stroke-miterlimit="22.9256" stroke-linecap="round"/>
<path d="M9.62513 19.7051H7.75447C4.6198 19.7051 2.05713 22.2704 2.05713 25.4037V30.3611C2.05713 33.4957 4.62113 36.0584 7.75447 36.0584H9.62513" stroke="#0B3CFF" stroke-width="3" stroke-miterlimit="22.9256" stroke-linecap="round"/>
<path d="M17.9878 43.0838H10.0078C7.09715 43.0838 4.71582 40.7038 4.71582 37.7918V35.6211" stroke="#0B3CFF" stroke-width="3" stroke-miterlimit="22.9256" stroke-linecap="round"/>
</g>
<defs>
<clipPath id="clip0_887_2936">
<rect width="56" height="64" fill="white"/>
</clipPath>
</defs>
</svg>
