<svg width="56" height="64" fill="none" xmlns="http://www.w3.org/2000/svg"><g clip-path="url(#a)" stroke="#0B3CFF" stroke-width="3" stroke-miterlimit="22.926" stroke-linecap="round"><path d="M9.17 26.309C9.976.617 45.64.77 46.438 26.309c1.373 44.042-38.64 44.049-37.266 0Z"/><path d="M26.856 42.592a4.307 4.307 0 0 0-8.612 0 4.304 4.304 0 0 0 4.305 4.306 4.304 4.304 0 0 0 4.307-4.306ZM5.139 20.165C7.123 9.183 16.684 1.193 27.844 1.193c10.997 0 20.467 7.763 22.625 18.548"/><path d="M46.372 19.705h1.872c3.133 0 5.697 2.565 5.697 5.699v4.957c0 3.135-2.565 5.697-5.697 5.697h-1.872M9.625 19.705h-1.87c-3.135 0-5.698 2.565-5.698 5.699v4.957c0 3.135 2.564 5.697 5.697 5.697h1.871m8.363 7.026h-7.98c-2.91 0-5.292-2.38-5.292-5.292v-2.17"/></g><defs><clipPath id="a"><path fill="#fff" d="M0 0h56v64H0z"/></clipPath></defs></svg>