<svg width="56" height="64" fill="none" xmlns="http://www.w3.org/2000/svg"><g clip-path="url(#a)" stroke="#0B3CFF" stroke-width="3" stroke-miterlimit="22.926" stroke-linecap="round"><path d="M27.172 56.934C15.48 42.406 8.702 29.986 9.022 20.618c.78-22.94 35.523-22.801 36.302 0 .319 9.368-6.457 21.788-18.152 36.316Z"/><path d="M27.172 29.25a8.09 8.09 0 1 0 0-16.182 8.09 8.09 0 0 0 0 16.182Zm4.427 21.914c7.366.684 12.478 2.97 12.478 5.576 0 3.192-7.664 5.927-17.002 5.927-9.337 0-16.81-2.739-16.81-5.927 0-2.488 4.67-4.699 11.588-5.483"/></g><defs><clipPath id="a"><path fill="#fff" d="M0 0h56v64H0z"/></clipPath></defs></svg>