<svg width="64" height="64" fill="none" xmlns="http://www.w3.org/2000/svg"><g clip-path="url(#a)"><path d="M63.5 32c0 17.397-14.103 31.5-31.5 31.5S.5 49.397.5 32 14.603.5 32 .5 63.5 14.603 63.5 32Z" fill="#fff" stroke="#E6EBF1"/><path d="m28.271 31.45 9.928-9.914L53.117 36.39c.225-1.243.349-2.523.349-3.831 0-11.839-9.597-21.435-21.435-21.435S10.597 20.721 10.597 32.56c0 2.332.377 4.576 1.067 6.678l12.052-12.344 4.555 4.557Z" fill="#0365B2"/><path d="m28.261 41.07-4.556-4.555-8.74 9.01c3.916 5.145 10.102 8.468 17.066 8.468 7.883 0 14.767-4.258 18.49-10.596L38.2 31.133l-9.938 9.938Z" fill="#85C7E3"/><path d="M9.148 42.79 5.57 44.08l-.834-2.312.562-.203.617 1.713 3.017-1.088.216.6Zm-1.532-5.105c.089.37.084.706-.014 1.009a1.64 1.64 0 0 1-.53.77 2.332 2.332 0 0 1-.955.456 2.335 2.335 0 0 1-1.058.03 1.64 1.64 0 0 1-.824-.443c-.225-.225-.382-.522-.472-.892-.089-.37-.085-.708.013-1.01.098-.305.275-.562.53-.773a2.33 2.33 0 0 1 .955-.455 2.331 2.331 0 0 1 1.058-.031c.324.071.598.22.824.445.225.226.383.524.473.894Zm-.583.14a1.106 1.106 0 0 0-.315-.58 1.044 1.044 0 0 0-.56-.26 1.905 1.905 0 0 0-.738.047 1.866 1.866 0 0 0-.676.295c-.18.13-.304.292-.376.485a1.15 1.15 0 0 0-.022.662c.059.249.163.442.314.58.151.137.338.222.56.257.222.034.468.019.739-.047.27-.065.495-.162.674-.293.18-.13.306-.292.377-.484.072-.192.08-.413.023-.662Zm.001-3.287-3.804.032-.013-1.573c0-.037 0-.084.003-.142.002-.058.008-.112.016-.162a1.15 1.15 0 0 1 .215-.548 1.01 1.01 0 0 1 .423-.323c.172-.071.362-.107.572-.109.208-.002.397.032.57.101.172.07.315.175.43.317.113.143.188.324.223.542a2.095 2.095 0 0 1 .024.304l.007.935 1.33-.01.004.636Zm-1.928-.62-.007-.91c0-.035-.003-.075-.007-.119a.626.626 0 0 0-.022-.121.489.489 0 0 0-.142-.25.59.59 0 0 0-.228-.127.85.85 0 0 0-.499.004.586.586 0 0 0-.227.132.49.49 0 0 0-.138.251.571.571 0 0 0-.019.122 2.548 2.548 0 0 0-.003.119l.008.909 1.284-.01ZM7.1 30.314l-3.768-.522.087-.63 1.586.219.247-1.786-1.586-.22.087-.627 3.768.52-.086.63-1.591-.22-.248 1.785 1.591.22-.087.63Zm1.438-6.08c-.13.358-.321.635-.571.832a1.64 1.64 0 0 1-.868.347 2.33 2.33 0 0 1-1.048-.153 2.33 2.33 0 0 1-.897-.561 1.64 1.64 0 0 1-.438-.827c-.063-.312-.028-.646.103-1.004.13-.357.321-.635.571-.833.25-.199.54-.314.87-.348.33-.034.679.017 1.047.152.369.136.668.323.897.562.23.239.375.514.438.827.062.313.028.65-.104 1.006Zm-.562-.206c.09-.24.11-.46.061-.658a1.042 1.042 0 0 0-.322-.527 1.907 1.907 0 0 0-.64-.37 1.884 1.884 0 0 0-.725-.131c-.222.01-.416.074-.582.195-.166.12-.295.3-.386.538-.09.24-.11.458-.061.656.05.198.156.373.322.525a1.9 1.9 0 0 0 .64.372c.261.096.503.14.724.13a1.04 1.04 0 0 0 .583-.193 1.15 1.15 0 0 0 .386-.537Zm1.503-2.473-.457-.275a.58.58 0 0 0 .093-.194.289.289 0 0 0-.017-.182.757.757 0 0 0-.143-.207 3.652 3.652 0 0 0-.277-.269 9.873 9.873 0 0 0-.529-.437 23.374 23.374 0 0 0-1.52-1.079l1.314-2.183 3.26 1.961-.328.546-2.749-1.653-.68 1.133.349.245a20.77 20.77 0 0 1 .92.686c.165.13.323.265.475.402.138.124.257.245.356.362.099.117.168.235.207.353a.598.598 0 0 1-.003.372 1.16 1.16 0 0 1-.27.42Zm2.622-4.176-2.85-2.52.421-.476.996.88.62-.701c.023-.027.055-.062.096-.105a1.32 1.32 0 0 1 .122-.111c.17-.142.345-.23.525-.262.18-.033.356-.019.53.042.175.062.34.162.496.3.157.139.277.29.36.456.082.166.118.34.108.523a1.13 1.13 0 0 1-.196.552 2.429 2.429 0 0 1-.187.244L12.1 17.38Zm-.026-.872.602-.682a1.4 1.4 0 0 0 .076-.094.88.88 0 0 0 .067-.103.487.487 0 0 0 .06-.279.584.584 0 0 0-.086-.248.86.86 0 0 0-.373-.33.59.59 0 0 0-.256-.053.49.49 0 0 0-.27.093.644.644 0 0 0-.096.077c-.031.03-.06.06-.084.087l-.602.681.962.85Zm2.163-1.545-2.85-2.52.421-.477 2.85 2.52-.421.476Zm1.36-1.354.043-2.41-2.159-.754.62-.441 1.956.719-.997-1.401.519-.37.997 1.402-.039-2.083.62-.442.005 2.286 2.291.75-.64.455-2.032-.678 1.003 1.41-.519.37-1.003-1.41-.024 2.14-.642.457Zm5.006-3.315L19.1 6.8l.585-.252.634 1.47 1.655-.712-.633-1.47.582-.252 1.505 3.494-.582.25-.636-1.474-1.655.713.635 1.475-.585.252Zm4.335-1.696L24.047 4.9l.619-.15.311 1.292.91-.219c.035-.008.08-.019.14-.03.058-.012.113-.019.163-.021.22-.02.414.01.58.085.166.076.303.189.41.34.109.15.187.327.236.529.049.203.06.396.032.58a1.019 1.019 0 0 1-.21.49 1.145 1.145 0 0 1-.477.34 2.02 2.02 0 0 1-.293.093l-1.529.37Zm.48-.73.883-.213c.036-.009.075-.02.116-.033a.911.911 0 0 0 .115-.047.488.488 0 0 0 .208-.194.583.583 0 0 0 .072-.253.86.86 0 0 0-.117-.484.592.592 0 0 0-.18-.19.49.49 0 0 0-.273-.078.67.67 0 0 0-.124.008 1.48 1.48 0 0 0-.118.023l-.884.213.301 1.248Zm2.657-.027-.893-3.698.62-.15.892 3.698-.619.15Zm2.22-.21-.104-3.803.645-.018.073 2.681 1.692-2.728.644-.018.104 3.803-.645.017-.073-2.68-1.691 2.728-.645.018Zm1.412-4.167a.767.767 0 0 1-.406-.097.832.832 0 0 1-.297-.282.769.769 0 0 1-.12-.399l.497-.013a.293.293 0 0 0 .095.212c.06.057.133.085.217.083a.295.295 0 0 0 .214-.095.293.293 0 0 0 .082-.217l.497-.013a.765.765 0 0 1-.098.405.826.826 0 0 1-.283.297.774.774 0 0 1-.398.12ZM42.07 9.658l1.755-3.375.565.294-.814 1.565 2.162-.864.694.361-2.312.9.655 2.526-.717-.373-.604-2.315-.82 1.575-.564-.294Zm4.824 2.96c-.31-.22-.526-.478-.65-.771a1.638 1.638 0 0 1-.104-.93 2.34 2.34 0 0 1 .425-.969c.228-.32.488-.558.78-.716.29-.157.595-.225.913-.203.318.022.63.144.94.365.31.222.528.48.652.773.125.294.16.604.105.93-.055.328-.197.65-.425.97-.228.32-.488.558-.78.716a1.637 1.637 0 0 1-.913.202c-.319-.023-.633-.145-.943-.366Zm.349-.487c.207.15.413.228.618.233.205.006.403-.05.593-.17.19-.12.366-.292.528-.519a1.88 1.88 0 0 0 .318-.664c.05-.217.038-.421-.034-.613a1.149 1.149 0 0 0-.416-.516 1.097 1.097 0 0 0-.617-.232 1.045 1.045 0 0 0-.591.171 1.92 1.92 0 0 0-.529.519 1.891 1.891 0 0 0-.318.663c-.05.216-.04.42.032.613.072.192.21.363.416.515Zm2.137 2.495 2.774-2.603.392.418-1.064 2.804 2.866-.884.392.418-2.775 2.603-.407-.433 1.779-1.669-2.578.817-.173-.185.98-2.519-1.778 1.669-.408-.436Zm3.483 4.091 3.341-1.817 1.474 2.71-3.342 1.817-.304-.56 2.817-1.532-.865-1.59-2.817 1.532-.304-.56Zm2.085 3.89.504-.176a.593.593 0 0 0 .089.195.29.29 0 0 0 .151.104c.064.02.147.027.25.022.105-.004.232-.018.385-.04.218-.034.443-.076.674-.127a22.209 22.209 0 0 0 1.301-.331l.5-.146.837 2.406-3.593 1.25-.21-.602 3.03-1.053-.434-1.248-.412.111a19.947 19.947 0 0 1-1.118.268 9.677 9.677 0 0 1-.611.108c-.185.027-.353.04-.507.042a1.06 1.06 0 0 1-.404-.068.598.598 0 0 1-.284-.24 1.159 1.159 0 0 1-.148-.476Zm1.51 4.696 3.763-.563.364 2.43-.59.09-.27-1.802-.928.14.223 1.486-.59.089-.223-1.487-1.064.159.27 1.8-.59.09-.364-2.432Zm.495 3.91 3.804-.032.005.638-1.764.014 1.777 1.505.006.783-1.878-1.62-1.925 1.762-.007-.809 1.763-1.618-1.776.014-.005-.637Zm-.452 5.638c.07-.375.21-.68.423-.917s.478-.4.797-.489a2.335 2.335 0 0 1 1.058-.028c.386.071.712.206.98.402.266.197.457.443.571.74.115.297.138.632.069 1.007-.08.431-.252.771-.521 1.02a1.731 1.731 0 0 1-.983.445l-.059-.664c.258-.028.472-.116.642-.266.17-.15.28-.364.331-.643.046-.252.028-.47-.053-.659a1.044 1.044 0 0 0-.405-.464 1.93 1.93 0 0 0-.693-.26 1.888 1.888 0 0 0-.738-.005c-.22.047-.4.143-.544.29a1.122 1.122 0 0 0-.285.599c-.05.279-.023.519.083.72.106.2.274.358.504.476l-.29.6a1.729 1.729 0 0 1-.76-.766c-.163-.327-.206-.707-.127-1.138ZM13.233 53.35l.158-1.487 1.484-.181.056.429-1.146.14-.122 1.148-.43-.05Zm-.768-.756.158-1.487 1.484-.181.056.429-1.149.138-.12 1.15-.43-.05Zm2.665 3.313c-.307-.223-.522-.482-.643-.776a1.64 1.64 0 0 1-.097-.93c.058-.326.202-.649.433-.967.23-.317.493-.553.785-.709a1.64 1.64 0 0 1 .915-.196c.317.025.63.15.937.373.355.258.586.56.694.91.107.35.1.71-.023 1.08l-.624-.235c.086-.244.099-.476.037-.694-.061-.218-.207-.41-.436-.576a1.117 1.117 0 0 0-.617-.236 1.043 1.043 0 0 0-.593.165c-.191.117-.37.287-.535.511a1.895 1.895 0 0 0-.323.664 1.04 1.04 0 0 0 .027.617c.07.192.21.364.416.514.23.167.457.246.684.236.227-.009.443-.092.647-.248l.416.52a1.73 1.73 0 0 1-1.02.355c-.365.006-.725-.12-1.08-.377Zm3.768 2.305c-.337-.177-.587-.402-.75-.675a1.642 1.642 0 0 1-.23-.906c.01-.331.105-.671.287-1.019.182-.348.407-.62.674-.816.267-.196.558-.306.876-.327.318-.022.645.056.982.233.337.176.588.4.751.675.164.273.241.576.232.907-.01.33-.106.67-.288 1.018s-.406.62-.673.817a1.64 1.64 0 0 1-.877.325c-.319.022-.647-.056-.984-.232Zm.278-.532c.226.12.44.17.644.147.204-.022.392-.106.564-.25a1.91 1.91 0 0 0 .451-.587c.13-.247.204-.48.224-.702.02-.222-.02-.422-.117-.603a1.149 1.149 0 0 0-.484-.453 1.096 1.096 0 0 0-.642-.145c-.203.023-.39.107-.562.251-.172.145-.323.34-.452.587-.13.246-.204.48-.224.7-.02.221.018.423.116.603.097.18.258.33.482.452Zm2.36 1.646 1.244-3.595.602.208-.577 1.668 2.012-1.171.74.255-2.156 1.228 1.017 2.404-.765-.265-.935-2.202-.58 1.678-.602-.208Zm4.165.53 1.125-.983-.703-1.32-.383.202.543 1.018-.87.759.288.324Zm1.06.194 1.126-.983-.704-1.32-.383.202.546 1.019-.872.758.287.324Zm5.789 1.305c-.38.008-.708-.068-.983-.228a1.638 1.638 0 0 1-.64-.682 2.335 2.335 0 0 1-.241-1.03 2.34 2.34 0 0 1 .195-1.04c.139-.301.341-.538.609-.71.267-.173.591-.264.971-.272.439-.01.807.092 1.104.304.297.213.509.504.635.873l-.638.191a1.127 1.127 0 0 0-.39-.574c-.182-.136-.414-.2-.697-.194a1.118 1.118 0 0 0-.634.185 1.043 1.043 0 0 0-.372.49c-.081.21-.12.453-.115.732.006.278.054.52.145.724.09.205.221.363.394.474.173.11.388.163.643.157.284-.006.513-.082.688-.226.174-.145.296-.342.364-.59l.646.163c-.11.374-.308.673-.596.899-.287.226-.65.344-1.088.354Zm2.431-.172.55-3.95.919-.156 1.816 3.551-.646.11-1.642-3.185.141-.024-.492 3.545-.646.109Zm.522-.924-.099-.586 1.97-.333.098.586-1.969.333Zm3.725.146-1.18-3.617.545-.177 2.087 2.153.415-2.97.544-.177 1.18 3.616-.565.184-.756-2.317-.354 2.68-.24.078-1.865-1.956.757 2.318-.568.185Zm4.48-1.607-.636-3.938.833-.419 2.78 2.861-.586.294-2.505-2.561.128-.064.571 3.533-.585.294Zm.227-1.037-.267-.531 1.785-.897.267.532-1.785.896Zm3.564-1.018-2.168-3.126 1.292-.896c.03-.021.07-.047.12-.078.048-.031.096-.057.142-.078.2-.098.391-.141.573-.13.183.01.351.066.506.168.155.101.292.238.412.41.118.171.197.347.237.529.04.18.033.358-.02.533a1.144 1.144 0 0 1-.322.49 2.031 2.031 0 0 1-.238.19l-.768.533.757 1.092-.523.363Zm-.573-1.943.747-.518c.03-.02.06-.044.095-.072a.638.638 0 0 0 .088-.087.49.49 0 0 0 .126-.257.587.587 0 0 0-.024-.26.845.845 0 0 0-.284-.41.585.585 0 0 0-.236-.114.487.487 0 0 0-.285.027.58.58 0 0 0-.112.053l-.1.065-.746.518.731 1.055Zm3.298-.013-1.67-3.623.69-.627 3.446 2.01-.485.44-3.1-1.794.105-.097 1.499 3.25-.485.44Zm-.06-1.06-.399-.44 1.479-1.343.4.44-1.48 1.343Z" fill="#0365B2"/></g><defs><clipPath id="a"><path fill="#fff" d="M0 0h64v64H0z"/></clipPath></defs></svg>