<svg width="56" height="56" fill="none" xmlns="http://www.w3.org/2000/svg"><path d="M55.5 28c0 15.188-12.312 27.5-27.5 27.5S.5 43.188.5 28 12.812.5 28 .5 55.5 12.812 55.5 28Z" fill="#fff" stroke="#E6EBF1"/><path d="m24.122 26.69 9.618-9.605 14.452 14.392c.217-1.205.337-2.445.337-3.712C48.53 16.297 39.233 7 27.764 7 16.297 7 7 16.297 7 27.765c0 2.26.366 4.433 1.034 6.47l11.675-11.959 4.413 4.415Z" fill="#0365B2"/><path d="m24.113 36.01-4.414-4.413-8.466 8.728c3.792 4.984 9.785 8.204 16.532 8.204 7.636 0 14.306-4.125 17.912-10.266L33.74 26.383l-9.627 9.627Z" fill="#85C7E3"/></svg>