<svg width="123" height="50" fill="none" xmlns="http://www.w3.org/2000/svg"><path d="m57.435 18.136 8.858-8.847 13.31 13.255c.2-1.11.311-2.252.311-3.419C79.914 8.563 71.351 0 60.789 0S41.664 8.563 41.664 19.125a19.1 19.1 0 0 0 .952 5.96L53.37 14.07l4.065 4.066Z" fill="#fff"/><path d="m57.428 26.719-4.066-4.065-7.797 8.04c3.493 4.59 9.012 7.555 15.226 7.555 7.033 0 13.176-3.8 16.498-9.455L66.294 17.852l-8.866 8.867ZM122.423.896h-14.854l-9.942 17.425-.459.804V.896H83.477v36.459h13.691v-18.23l.46.805 9.941 17.425h14.854l-10.371-18.23L122.423.896ZM4.61 46.824H2.957v3.11h-.789v-3.86H4.61v.75Zm3.256 1.18c0 .722.519 1.245 1.213 1.245.695 0 1.213-.523 1.213-1.245 0-.723-.518-1.247-1.213-1.247-.694 0-1.213.524-1.213 1.247Zm3.225 0c0 1.136-.877 1.995-2.012 1.995-1.136 0-2.007-.86-2.007-1.995 0-1.137.871-1.996 2.007-1.996 1.135 0 2.012.86 2.012 1.996Zm4.951-.624c0-.34-.198-.556-.607-.556h-.799v1.114h.8c.408 0 .606-.22.606-.557Zm.8-.01c0 .81-.546 1.317-1.373 1.317h-.833v1.247h-.788v-3.86h1.621c.827 0 1.372.485 1.372 1.296Zm6.051-1.296v3.86h-.788v-1.6H20.39v1.6h-.788v-3.86h.788v1.51h1.715v-1.51h.788Zm3.555 1.932c0 .722.519 1.245 1.213 1.245.695 0 1.213-.523 1.213-1.245 0-.723-.518-1.247-1.213-1.247-.694 0-1.213.524-1.213 1.247Zm3.225 0c0 1.136-.876 1.995-2.012 1.995-1.136 0-2.007-.86-2.007-1.995 0-1.137.871-1.996 2.007-1.996 1.136 0 2.012.86 2.012 1.996Zm5.954-1.932v3.86h-.788v-3.11h-1.042l-.31 1.924c-.142.899-.523 1.251-1.074 1.251-.121 0-.27-.016-.386-.038v-.711c.072.01.155.017.22.017.271 0 .392-.127.464-.596l.419-2.597h2.497Zm7.131 3.86h-.788v-3.86h.788v3.86Zm-2.04-1.22c0-.308-.17-.45-.54-.45h-.833v.92h.816c.37 0 .557-.16.557-.47Zm.794.012c0 .778-.496 1.208-1.323 1.208h-1.632v-3.86h.788v1.45h.86c.843 0 1.307.42 1.307 1.202Zm8.28 1.207-1.361-1.786v1.786h-.789v-1.786l-1.367 1.786h-.97l1.51-1.985-1.428-1.874h.96l1.295 1.687v-1.687h.789v1.687l1.29-1.687h.959l-1.428 1.874 1.51 1.985h-.97Zm6.925-3.859v3.86h-.788v-1.6h-1.715v1.6h-.788v-3.86h.788v1.51h1.715v-1.51h.788Zm7.129 3.86h-.788v-3.86h.788v3.86Zm-2.04-1.22c0-.308-.17-.45-.54-.45h-.833v.92h.816c.37 0 .557-.16.557-.47Zm.794.012c0 .778-.497 1.208-1.323 1.208h-1.633v-3.86h.79v1.45h.86c.843 0 1.306.42 1.306 1.202Zm4.753-3.935v-.148h.624v.126c0 .188.12.31.303.31.182 0 .302-.123.302-.31v-.126h.618v.148c0 .557-.44.882-.92.882-.486 0-.927-.325-.927-.882Zm2.58 1.285v3.86h-.788V48.32l.072-1.087-1.682 2.702h-.904v-3.86h.789v1.616l-.072 1.086 1.681-2.701h.904Zm8.885 3.857-1.45-1.803v1.803h-.788v-3.859h.789v1.71l1.373-1.71h.975l-1.516 1.87 1.604 1.99h-.987Zm3.917-1.929c0 .722.519 1.245 1.213 1.245.695 0 1.213-.523 1.213-1.245 0-.723-.518-1.247-1.213-1.247-.694 0-1.213.524-1.213 1.247Zm3.225 0c0 1.136-.876 1.995-2.012 1.995-1.136 0-2.007-.86-2.007-1.995 0-1.137.871-1.996 2.007-1.996 1.136 0 2.012.86 2.012 1.996Zm6.52-1.93v3.86h-.788v-2.768l-1.075 1.626h-.071l-1.07-1.626v2.767h-.788v-3.859h.904l.992 1.483.987-1.483h.91Zm6.214 3.859h-.789v-3.11h-1.714v3.11h-.789v-3.859h3.292v3.86Zm6.263-3.859v3.86h-.788v-3.11h-1.042l-.309 1.924c-.143.899-.523 1.251-1.075 1.251-.121 0-.27-.016-.386-.038v-.711c.072.01.155.017.221.017.27 0 .391-.127.463-.596l.419-2.597h2.497Zm3.718.75v.778h1.654v.749h-1.654v.833h1.803v.75h-2.591v-3.86h2.591v.75h-1.803Zm6.762 3.109-1.449-1.803v1.803h-.789v-3.859h.789v1.71l1.373-1.71h.975l-1.516 1.87 1.605 1.99h-.988Zm3.145-1.929c0-1.137.843-1.996 1.996-1.996.92 0 1.637.568 1.863 1.39h-.843c-.182-.398-.552-.64-1.026-.64-.711 0-1.196.523-1.196 1.246 0 .722.485 1.245 1.196 1.245.474 0 .844-.242 1.026-.64h.843c-.226.822-.943 1.39-1.863 1.39-1.153 0-1.996-.86-1.996-1.995ZM19.12 24.884a5.758 5.758 0 0 1 0-11.516 5.747 5.747 0 0 1 4.889 2.727h13.99C36.546 6.975 28.65.005 19.12.005 8.56.006 0 8.567 0 19.127s8.56 19.12 19.12 19.12c9.528 0 17.426-6.97 18.88-16.088H24.008a5.748 5.748 0 0 1-4.889 2.726Z" fill="#fff"/></svg>