<svg id="svg-camera" viewBox="0 0 24 24" fill="currentColor" xmlns="http://www.w3.org/2000/svg">
<path d="M22 5L14 10.6V13.4L22 19H23V5H22ZM21 15.8587L15.4875 12L21 8.1413V15.8587Z"/>
<path d="M13 7V17H3V7H13ZM13 5H3C2.46957 5 1.96086 5.21071 1.58579 5.58579C1.21071 5.96086 1 6.46957 1 7V17C1 17.5304 1.21071 18.0391 1.58579 18.4142C1.96086 18.7893 2.46957 19 3 19H13C13.5304 19 14.0391 18.7893 14.4142 18.4142C14.7893 18.0391 15 17.5304 15 17V7C15 6.46957 14.7893 5.96086 14.4142 5.58579C14.0391 5.21071 13.5304 5 13 5Z"/>
</svg>
