<svg id="svg-chamber" viewBox="0 0 48 48" fill="currentColor" xmlns="http://www.w3.org/2000/svg">
<path d="M44 10L28 21.2V26.8L44 38H46V10H44ZM42 31.7174L30.975 24L42 16.2826V31.7174Z"/>
<path d="M26 10H6C4.93914 10 3.92172 10.4214 3.17158 11.1716C2.42142 11.9217 2 12.9391 2 14V34C2 35.0608 2.42142 36.0782 3.17158 36.8284C3.92172 37.5786 4.93914 38 6 38H26C27.0608 38 28.0782 37.5786 28.8284 36.8284C29.5786 36.0782 30 35.0608 30 34V14C30 12.9391 29.5786 11.9217 28.8284 11.1716C28.0782 10.4214 27.0608 10 26 10Z"/>
</svg>