<svg id="svg-chevron-in-circle-right" viewBox="0 0 36 36" fill="currentColor" xmlns="http://www.w3.org/2000/svg">
<path d="M14.8184 12.6966L20.1219 18L14.8184 23.3034L16.9395 25.425L24.3645 18L16.9395 10.575L14.8184 12.6966ZM18 3C15.0333 3 12.1332 3.87974 9.66645 5.52795C7.19972 7.17618 5.27714 9.51885 4.14182 12.2598C3.0065 15.0006 2.70945 18.0167 3.28823 20.9264C3.867 23.8361 5.29562 26.5088 7.39341 28.6067C9.49119 30.7044 12.1639 32.133 15.0737 32.7119C17.9834 33.2906 20.9994 32.9936 23.7402 31.8582C26.4812 30.7229 28.8238 28.8003 30.472 26.3336C32.1202 23.8668 33 20.9667 33 18C33 16.0302 32.6119 14.0796 31.8582 12.2598C31.1045 10.4399 29.9995 8.78628 28.6067 7.39339C27.2138 6.00052 25.5602 4.89563 23.7402 4.1418C21.9204 3.38799 19.9698 3 18 3ZM18 30C15.6267 30 13.3066 29.2962 11.3332 27.9777C9.35978 26.6591 7.82171 24.785 6.91346 22.5923C6.00521 20.3996 5.76756 17.9867 6.23058 15.659C6.6936 13.3311 7.8365 11.193 9.51473 9.51473C11.193 7.8365 13.3311 6.6936 15.659 6.23058C17.9867 5.76756 20.3996 6.00519 22.5923 6.91344C24.785 7.82171 26.659 9.35976 27.9777 11.3332C29.2962 13.3065 30 15.6266 30 18C29.9964 21.1815 28.731 24.2316 26.4813 26.4813C24.2318 28.731 21.1815 29.9964 18 30Z"/>
</svg>