<svg id="svg-college" viewBox="0 0 48 47" fill="none" xmlns="http://www.w3.org/2000/svg">
<path fill-rule="evenodd" clip-rule="evenodd" d="M24 0.347656C36.882 0.347656 47.325 10.7907 47.325 23.6742C47.325 36.5562 36.882 46.9992 24 46.9992C11.118 46.9992 0.675049 36.5562 0.675049 23.6742C0.675049 10.7922 11.118 0.347656 24 0.347656Z" fill="#A5D1FE"/>
<path d="M24 10.5605L6 21.0005L13.5 25.3506V30.4647C13.5 31.2546 13.7079 32.0305 14.1029 32.7147C14.4978 33.3988 15.0659 33.9669 15.75 34.3618L24 39.1249L32.25 34.3618C32.9342 33.9669 33.5022 33.3988 33.8972 32.7147C34.2921 32.0305 34.5 31.2546 34.5 30.4647V25.3506L39 22.7406V31.5006H42V21.0005L24 10.5605ZM24 14.0287L33.435 19.5005H24V22.5006H33.435L24 27.9724L11.9795 21.0005L24 14.0287ZM31.5 30.4647C31.4995 30.7279 31.4301 30.9864 31.2985 31.2144C31.1668 31.4422 30.9777 31.6317 30.75 31.7637L24 35.6608L17.25 31.7637C17.0222 31.6317 16.8331 31.4422 16.7015 31.2144C16.5699 30.9864 16.5004 30.7279 16.5 30.4647V27.0906L24 31.4406L31.5 27.0906V30.4647Z" fill="#1A1A1A"/>
</svg>