<svg id="svg-eye-visibility" viewBox="0 0 20 20" fill="currentColor" xmlns="http://www.w3.org/2000/svg">
<path d="M10.0007 3C7.96569 3.00098 5.9728 3.57924 4.25341 4.66762C2.53401 5.75601 1.15867 7.30984 0.287109 9.14868C1.15788 10.9881 2.53304 12.5424 4.25261 13.6309C5.97218 14.7194 7.96548 15.2973 10.0007 15.2973C12.0357 15.2973 14.0291 14.7194 15.7486 13.6309C17.4681 12.5424 18.8433 10.9881 19.7142 9.14868C18.8426 7.30984 17.4672 5.75601 15.7478 4.66762C14.0284 3.57924 12.0356 3.00098 10.0007 3ZM10.0007 12.0724C9.42232 12.0724 8.85707 11.9009 8.37623 11.5797C7.89545 11.2584 7.52071 10.8018 7.29942 10.2675C7.07813 9.73327 7.02023 9.14543 7.13304 8.57827C7.24585 8.0111 7.52431 7.49018 7.93321 7.08127C8.34207 6.67237 8.86307 6.39391 9.43023 6.2811C9.9974 6.16828 10.5852 6.22618 11.1195 6.44747C11.6537 6.66877 12.1103 7.04351 12.4317 7.52435C12.7529 8.0051 12.9244 8.57043 12.9244 9.14868C12.9244 9.9241 12.6163 10.6678 12.068 11.2161C11.5197 11.7643 10.7761 12.0724 10.0007 12.0724Z"/>
</svg>
