<svg id="svg-eye-closed" viewBox="0 0 20 20" fill="currentColor" xmlns="http://www.w3.org/2000/svg">
<path d="M17.8277 9.16699C17.027 10.5315 15.8834 11.6629 14.5104 12.4492C13.1374 13.2353 11.5827 13.6489 10.0007 13.6489C8.41848 13.6489 6.86382 13.2353 5.49083 12.4492C4.11786 11.6629 2.97425 10.5315 2.17344 9.16699H0.287109C1.1579 11.0064 2.53307 12.5607 4.25264 13.6492C5.97221 14.7377 7.96549 15.3155 10.0007 15.3155C12.0357 15.3155 14.029 14.7377 15.7486 13.6492C17.4681 12.5607 18.8433 11.0064 19.7142 9.16699H17.8277Z"/>
<rect x="16.0391" y="12.4805" width="3.33333" height="1.66667" transform="rotate(56.6877 16.0391 12.4805)"/>
<rect x="5.66602" y="13.333" width="3.33333" height="1.66667" transform="rotate(120 5.66602 13.333)"/>
<rect x="10.9121" y="14.2061" width="3.33333" height="1.66667" transform="rotate(91.3531 10.9121 14.2061)"/>
</svg>
