<svg id="svg-key" viewBox="0 0 48 47" fill="none" xmlns="http://www.w3.org/2000/svg">
<path fill-rule="evenodd" clip-rule="evenodd" d="M24 0.347656C36.882 0.347656 47.325 10.7907 47.325 23.6742C47.325 36.5562 36.882 46.9992 24 46.9992C11.118 46.9992 0.675049 36.5562 0.675049 23.6742C0.675049 10.7922 11.118 0.347656 24 0.347656Z" fill="#A5D1FE"/>
<g clip-path="url(#clip0_887_6457)">
<mask id="mask0_887_6457" style="mask-type:luminance" maskUnits="userSpaceOnUse" x="6" y="6" width="36" height="36">
<path d="M42 6H6V42H42V6Z" fill="white"/>
</mask>
<g mask="url(#mask0_887_6457)">
<path d="M24.286 19.5C23.2954 17.7842 21.7663 16.4433 19.936 15.6851C18.1056 14.9269 16.0761 14.7939 14.1624 15.3067C12.2487 15.8194 10.5577 16.9494 9.35164 18.5211C8.14555 20.0929 7.49182 22.0188 7.49182 24C7.49182 25.9812 8.14555 27.907 9.35164 29.4789C10.5577 31.0506 12.2487 32.1805 14.1624 32.6934C16.0761 33.2061 18.1056 33.073 19.936 32.3149C21.7663 31.5567 23.2954 30.2158 24.286 28.5H25.9999L28.9999 26.625L31.9999 28.5L34.9999 26.625L37.9999 28.5L42 25.9999V19.5H24.286ZM39.3 24.5035L37.9999 25.3159L36.4309 24.3354L34.9999 23.4409L33.5689 24.3354L31.9999 25.3159L30.4309 24.3354L28.9999 23.4409L27.5689 24.3354L25.2256 25.8H22.7299L21.9499 27.1465C21.2571 28.3483 20.187 29.2878 18.9057 29.8192C17.6243 30.3507 16.2034 30.4444 14.8634 30.0858C13.5233 29.7271 12.3391 28.9363 11.4945 27.8359C10.6499 26.7355 10.192 25.387 10.192 24C10.192 22.6128 10.6499 21.2643 11.4945 20.164C12.3391 19.0636 13.5233 18.2727 14.8634 17.9141C16.2034 17.5555 17.6243 17.6492 18.9057 18.1806C20.187 18.712 21.2571 19.6515 21.9499 20.8533L22.7299 22.2H39.3V24.5035ZM15 21.825C14.5698 21.825 14.1493 21.9525 13.7916 22.1916C13.434 22.4305 13.1552 22.7703 12.9906 23.1676C12.8259 23.5651 12.7829 24.0024 12.8668 24.4243C12.9507 24.8463 13.1579 25.2337 13.462 25.5379C13.7662 25.8421 14.1538 26.0493 14.5757 26.1331C14.9976 26.2171 15.4349 26.1741 15.8323 26.0094C16.2298 25.8448 16.5694 25.566 16.8084 25.2084C17.0474 24.8506 17.175 24.4302 17.175 24C17.175 23.4231 16.9458 22.8699 16.5379 22.462C16.1301 22.0542 15.5768 21.825 15 21.825Z" fill="#1A1A1A"/>
</g>
</g>
<defs>
<clipPath id="clip0_887_6457">
<rect width="36" height="36" fill="white" transform="translate(6 6)"/>
</clipPath>
</defs>
</svg>
