<svg id="svg-location" viewBox="0 0 48 48" fill="currentColor" xmlns="http://www.w3.org/2000/svg">
<path d="M24 4C27.7086 4.00408 31.264 5.47902 33.8864 8.10126C36.5088 10.7235 37.984 14.2789 37.9882 17.9874C37.9882 27.6654 27.7336 38.7022 24 42.399C20.2672 38.7028 10.0127 27.6662 10.0127 17.9874C10.0169 14.279 11.4919 10.7237 14.1141 8.10144C16.7364 5.4792 20.2916 4.00418 24 4ZM24 0C19.2312 0.005505 14.6593 1.90237 11.2872 5.27446C7.91506 8.64656 6.0182 13.2185 6.0127 17.9874C6.0127 31.5126 21.9824 46.042 22.6622 46.6534L24 47.8574L25.3378 46.6534C26.0178 46.042 41.9882 31.5134 41.9882 17.9874C41.9826 13.2184 40.0856 8.64644 36.7134 5.27436C33.3412 1.90227 28.769 0.00545178 24 0Z"/>
<path d="M24 14.7C24.6526 14.7 25.2908 14.8935 25.8334 15.2562C26.376 15.6188 26.799 16.1341 27.0488 16.7371C27.2986 17.3401 27.364 18.0037 27.2366 18.6438C27.1092 19.2839 26.795 19.8719 26.3334 20.3334C25.872 20.795 25.284 21.1092 24.6438 21.2366C24.0036 21.364 23.3402 21.2986 22.7372 21.0488C22.1342 20.799 21.6188 20.376 21.2562 19.8334C20.8936 19.2907 20.7 18.6527 20.7 18C20.701 17.1251 21.049 16.2863 21.6676 15.6677C22.2864 15.049 23.125 14.701 24 14.7ZM24 11.5C22.7144 11.5 21.4578 11.8812 20.3888 12.5954C19.3199 13.3097 18.4868 14.3248 17.9948 15.5126C17.5028 16.7003 17.3741 18.0072 17.6249 19.2681C17.8757 20.529 18.4948 21.6872 19.4038 22.5962C20.3128 23.5052 21.471 24.1244 22.732 24.3752C23.9928 24.626 25.2998 24.4972 26.4874 24.0052C27.6752 23.5132 28.6904 22.6802 29.4046 21.6112C30.1188 20.5422 30.5 19.2856 30.5 18C30.5 16.2761 29.8152 14.6228 28.5962 13.4038C27.3772 12.1848 25.724 11.5 24 11.5Z"/>
</svg>