<svg id="svg-photo" viewBox="0 0 36 36" fill="currentColor" xmlns="http://www.w3.org/2000/svg">
<path d="M4.5 4.5V31.5H31.5V4.5H4.5ZM28.5 28.5H7.5V26.4036L12.7523 21.743L14.1606 22.9977L16.1499 24.7701L18.1449 23.0042L22.8417 18.846L28.5 23.83V28.5ZM28.5 19.8321L22.8368 14.8437L16.1563 20.7579L12.7563 17.7279L7.5 22.3927V7.5H28.5V19.8321ZM12.75 15C13.195 15 13.63 14.868 14 14.6208C14.37 14.3736 14.6584 14.0222 14.8287 13.611C14.999 13.1999 15.0436 12.7475 14.9568 12.311C14.87 11.8746 14.6557 11.4737 14.341 11.159C14.0263 10.8443 13.6254 10.6301 13.189 10.5432C12.7525 10.4564 12.3001 10.501 11.889 10.6713C11.4778 10.8416 11.1264 11.13 10.8792 11.5C10.632 11.87 10.5 12.305 10.5 12.75C10.5 13.3467 10.7371 13.919 11.159 14.341C11.581 14.7629 12.1533 15 12.75 15Z"/>
</svg>