<svg id="svg-printer" viewBox="0 0 36 36" fill="currentColor" xmlns="http://www.w3.org/2000/svg">
<path d="M28.5 10.5H27V4.5H9V10.5H7.5C6.30652 10.5 5.16193 10.9741 4.31802 11.818C3.47411 12.6619 3 13.8065 3 15V28.5H9V31.5H27V28.5H33V15C33 13.8065 32.5259 12.6619 31.6819 11.818C30.838 10.9741 29.6934 10.5 28.5 10.5ZM12 7.5H24V10.5H12V7.5ZM24 28.5H12V25.5H24V28.5ZM30 25.5H27V22.5H9V25.5H6V15C6.00044 14.6023 6.15861 14.221 6.43982 13.9398C6.72104 13.6586 7.1023 13.5004 7.5 13.5H28.5C28.8976 13.5004 29.2789 13.6586 29.5602 13.9398C29.8414 14.221 29.9995 14.6023 30 15V25.5ZM10.5 16.125C10.1292 16.125 9.76665 16.235 9.45831 16.441C9.14997 16.647 8.90964 16.9398 8.76772 17.2824C8.62581 17.6251 8.58869 18.0021 8.66103 18.3659C8.73338 18.7295 8.91195 19.0636 9.17418 19.3258C9.43639 19.588 9.77049 19.7667 10.1342 19.839C10.4979 19.9113 10.8749 19.8743 11.2175 19.7322C11.5601 19.5903 11.853 19.35 12.059 19.0417C12.265 18.7333 12.375 18.3708 12.375 18C12.375 17.5028 12.1775 17.0258 11.8258 16.6742C11.4742 16.3226 10.9973 16.125 10.5 16.125Z"/>
</svg>
