<svg id="svg-ticket" viewBox="0 0 48 47" fill="none" xmlns="http://www.w3.org/2000/svg">
<path fill-rule="evenodd" clip-rule="evenodd" d="M24 0.347656C36.882 0.347656 47.325 10.7907 47.325 23.6742C47.325 36.5562 36.882 46.9992 24 46.9992C11.118 46.9992 0.675049 36.5562 0.675049 23.6742C0.675049 10.7922 11.118 0.347656 24 0.347656Z" fill="#A5D1FE"/>
<path d="M36 14V17.1898C34.7121 17.5225 33.5712 18.2738 32.7567 19.3255C31.9422 20.3772 31.5001 21.6698 31.5001 23C31.5001 24.3302 31.9422 25.6228 32.7567 26.6746C33.5712 27.7262 34.7121 28.4776 36 28.8102V32H12V28.8102C13.2879 28.4776 14.4288 27.7262 15.2433 26.6746C16.0579 25.6228 16.4998 24.3302 16.4998 23C16.4998 21.6698 16.0579 20.3772 15.2433 19.3255C14.4288 18.2738 13.2879 17.5225 12 17.1898V14H36ZM39 11H9V20H10.5C11.2956 20 12.0587 20.3161 12.6213 20.8787C13.1839 21.4413 13.5 22.2044 13.5 23C13.5 23.7956 13.1839 24.5587 12.6213 25.1213C12.0587 25.6839 11.2956 26 10.5 26H9V35H39V26H37.5C36.7044 26 35.9414 25.6839 35.3787 25.1213C34.816 24.5587 34.5 23.7956 34.5 23C34.5 22.2044 34.816 21.4413 35.3787 20.8787C35.9414 20.3161 36.7044 20 37.5 20H39V11Z" fill="#1A1A1A"/>
<path d="M36 14V17.1898C34.7121 17.5225 33.5712 18.2738 32.7567 19.3255C31.9422 20.3772 31.5001 21.6698 31.5001 23C31.5001 24.3302 31.9422 25.6228 32.7567 26.6746C33.5712 27.7262 34.7121 28.4776 36 28.8102V32H12V28.8102C13.2879 28.4776 14.4288 27.7262 15.2433 26.6746C16.0579 25.6228 16.4998 24.3302 16.4998 23C16.4998 21.6698 16.0579 20.3772 15.2433 19.3255C14.4288 18.2738 13.2879 17.5225 12 17.1898V14H36ZM39 11H9V20H10.5C11.2956 20 12.0587 20.3161 12.6213 20.8787C13.1839 21.4413 13.5 22.2044 13.5 23C13.5 23.7956 13.1839 24.5587 12.6213 25.1213C12.0587 25.6839 11.2956 26 10.5 26H9V35H39V26H37.5C36.7044 26 35.9414 25.6839 35.3787 25.1213C34.816 24.5587 34.5 23.7956 34.5 23C34.5 22.2044 34.816 21.4413 35.3787 20.8787C35.9414 20.3161 36.7044 20 37.5 20H39V11Z" fill="#1A1A1A"/>
</svg>
