<svg id="svg-toy" viewBox="0 0 48 47" fill="none" xmlns="http://www.w3.org/2000/svg">
<path fill-rule="evenodd" clip-rule="evenodd" d="M24 0.347656C36.882 0.347656 47.325 10.7907 47.325 23.6742C47.325 36.5562 36.882 46.9992 24 46.9992C11.118 46.9992 0.675049 36.5562 0.675049 23.6742C0.675049 10.7922 11.118 0.347656 24 0.347656Z" fill="#A5D1FE"/>
<path d="M38.7993 29.6877C38.2353 30.1542 37.6334 30.6047 37.0079 31.0274C36.4876 31.3793 35.9371 31.7024 35.3826 32.0148L33.7619 28.3307C33.2595 27.1886 33 25.9544 33 24.7067V20.9375H33.6665C34.8537 20.9374 35.9951 20.4779 36.8511 19.6551C37.7071 18.8324 38.2116 17.7103 38.2589 16.5239C38.2715 15.3968 37.8829 14.302 37.1628 13.4349C36.4428 12.5678 35.4378 11.9849 34.3276 11.7903L33 11.5313V8H30.015C28.7618 8 27.5505 8.45204 26.6037 9.27315C25.6569 10.0943 25.038 11.2293 24.8607 12.47L24 18.5H16.2965C15.132 18.5 13.9928 18.8389 13.0176 19.4753C12.0425 20.1116 11.2736 21.0179 10.8047 22.0838L9.5112 25.0238L12.2562 26.2323L13.5497 23.2908C13.8432 22.6459 14.3576 22.1272 15 21.8281V24.7067C15 25.9544 14.7405 27.1886 14.2382 28.3307L12.6174 32.015C12.0624 31.7033 11.5122 31.3799 10.9907 31.0272C10.3667 30.6053 9.7647 30.1549 9.2007 29.6884L7.2876 32C7.9263 32.5282 8.6076 33.0379 9.3105 33.5125C10.0049 33.9827 10.7343 34.4258 11.4771 34.8287C12.2199 35.2316 12.9921 35.6042 13.7739 35.9353C14.562 36.2686 15.3735 36.566 16.1889 36.8202C17.0139 37.0766 17.8602 37.2941 18.707 37.4676C20.449 37.8219 22.2222 38.0003 24 38C24.8962 38.0003 25.7919 37.9552 26.6836 37.865C27.5593 37.7759 28.4301 37.6429 29.2924 37.4664C30.142 37.2931 30.9825 37.0769 31.8105 36.819C32.6265 36.5657 33.438 36.2683 34.2255 35.935C35.0077 35.6039 35.7811 35.2319 36.5223 34.829C37.2635 34.4261 37.9945 33.9824 38.6874 33.5129C39.3924 33.0375 40.0731 32.5278 40.7124 31.9997L38.7993 29.6877ZM26.6019 21.5L26.97 18.9242L27.8313 12.8942C27.9083 12.372 28.1688 11.8944 28.5663 11.5472C28.9639 11.2 29.4723 11.006 30 11V14.0024L32.4254 14.4756L33.753 14.7348C34.1579 14.7934 34.5299 14.991 34.8051 15.2938C35.0803 15.5965 35.2418 15.9855 35.2616 16.3941C35.2465 16.8077 35.0723 17.1993 34.7748 17.4871C34.4775 17.7748 34.0803 17.9362 33.6665 17.9375H30V24.7067C29.9998 25.1839 30.028 25.6606 30.0843 26.1343C29.6693 26.045 29.2458 26 28.8211 26H19.1789C18.7542 26 18.3308 26.045 17.9157 26.1343C17.972 25.6606 18.0001 25.1839 18 24.7067V21.5H26.6019ZM30.92 33.9541C30.1872 34.1821 29.4436 34.3733 28.6919 34.5269C27.9286 34.6829 27.1509 34.8016 26.3804 34.8799C24.7969 35.0404 23.2015 35.0404 21.6181 34.8799C20.8491 34.8023 20.0714 34.6837 19.3081 34.5284C18.5595 34.3752 17.811 34.1819 17.0801 33.9555C16.4879 33.7709 15.9032 33.545 15.3251 33.3124L16.4334 30.7924C16.6678 30.2594 17.0521 29.8062 17.5396 29.4879C18.0271 29.1697 18.5967 29.0002 19.1789 29H28.8211C29.4035 29 29.973 29.1693 30.4607 29.4876C30.9483 29.8058 31.3328 30.2589 31.5672 30.7919L32.6756 33.3119C32.0969 33.5441 31.5121 33.77 30.92 33.9541Z" fill="#1A1A1A"/>
</svg>
