<svg xmlns="http://www.w3.org/2000/svg" width="120" height="120" fill="none"><g clip-path="url(#a)"><circle cx="60" cy="60" r="60" fill="#fff"/><path fill="#0365B2" d="m51.363 57.698 22.649-22.701 34.034 34.013a49.53 49.53 0 0 0 .794-8.773c0-27.104-21.893-49.077-48.9-49.077-27.006 0-48.9 21.973-48.9 49.077 0 5.341.862 10.478 2.435 15.291L40.97 47.266l10.393 10.432Z"/><path fill="#85C7E3" d="M51.246 79.625 40.888 69.284 21.02 89.737c8.9 11.678 22.964 19.223 38.797 19.223 17.921 0 33.573-9.666 42.037-24.055L73.84 57.065l-22.594 22.56Z"/></g><defs><clipPath id="a"><path fill="#fff" d="M0 0h120v120H0z"/></clipPath></defs></svg>