<svg id="svg-calendar" viewBox="0 0 36 36" fill="currentColor" xmlns="http://www.w3.org/2000/svg">
<path d="M13.5 15H10.5V18H13.5V15ZM19.5 15H16.5V18H19.5V15ZM25.5 15H22.5V18H25.5V15ZM13.5 21H10.5V24H13.5V21ZM19.5 21H16.5V24H19.5V21ZM25.5 21H22.5V24H25.5V21ZM27 7.5V4.5C27 4.10217 26.8419 3.72065 26.5606 3.43934C26.2794 3.15804 25.8978 3 25.5 3C25.1022 3 24.7206 3.15804 24.4394 3.43934C24.1581 3.72065 24 4.10217 24 4.5V7.5H12V4.5C12 4.10217 11.842 3.72065 11.5607 3.43934C11.2794 3.15804 10.8978 3 10.5 3C10.1022 3 9.72064 3.15804 9.43933 3.43934C9.15804 3.72065 9 4.10217 9 4.5V7.5H3V31.5H33V7.5H27ZM30 28.5H6V10.5H30V28.5Z"/>
</svg>