<svg id="svg-gear" viewBox="0 0 48 47" fill="none" xmlns="http://www.w3.org/2000/svg">
<path fill-rule="evenodd" clip-rule="evenodd" d="M24 0.347656C36.882 0.347656 47.325 10.7907 47.325 23.6742C47.325 36.5562 36.882 46.9992 24 46.9992C11.118 46.9992 0.675049 36.5562 0.675049 23.6742C0.675049 10.7922 11.118 0.347656 24 0.347656Z" fill="#A5D1FE"/>
<path d="M24 18.3006C22.8726 18.3006 21.7705 18.6349 20.8332 19.2612C19.8959 19.8876 19.1653 20.7778 18.7339 21.8193C18.3024 22.8609 18.1896 24.0069 18.4095 25.1126C18.6294 26.2183 19.1723 27.234 19.9695 28.0311C20.7666 28.8283 21.7822 29.3712 22.888 29.5911C23.9937 29.811 25.1397 29.6982 26.1813 29.2668C27.2229 28.8354 28.113 28.1047 28.7394 27.1674C29.3656 26.23 29.7 25.128 29.7 24.0006C29.6982 22.4895 29.0971 21.0406 28.0285 19.972C26.9599 18.9034 25.5112 18.3024 24 18.3006ZM24 26.7006C23.466 26.7006 22.944 26.5423 22.5 26.2456C22.056 25.9489 21.7099 25.5273 21.5055 25.0339C21.3012 24.5406 21.2476 23.9976 21.3519 23.4739C21.456 22.9501 21.7132 22.4691 22.0908 22.0914C22.4683 21.7138 22.9495 21.4567 23.4732 21.3525C23.997 21.2484 24.5398 21.3018 25.0332 21.5062C25.5265 21.7105 25.9483 22.0566 26.245 22.5006C26.5416 22.9446 26.7 23.4666 26.7 24.0006C26.6991 24.7165 26.4144 25.4028 25.9083 25.9088C25.402 26.4151 24.7158 26.6998 24 26.7006ZM36.4329 22.7356L39.9931 19.8045L39.6702 18.8283C38.9595 16.6825 37.8177 14.7045 36.315 13.0158L35.6308 12.2481L31.3125 13.8661L29.1204 12.6006L28.3623 8.0508L27.3552 7.84275C25.1418 7.38575 22.8582 7.38575 20.6448 7.84275L19.6377 8.0508L18.8796 12.6006L16.6875 13.8661L12.3691 12.2481L11.685 13.0158C10.1823 14.7045 9.0405 16.6825 8.32979 18.8283L8.00684 19.8045L11.5671 22.7356V25.2655L8.00684 28.1967L8.32979 29.1729C9.04019 31.3189 10.1823 33.2968 11.6857 34.9848L12.3691 35.7523L16.6875 34.135L18.8796 35.4006L19.6377 39.9504L20.6448 40.1584C22.8582 40.6155 25.1418 40.6155 27.3552 40.1584L28.3623 39.9504L29.1204 35.4006L31.3125 34.1356L35.6308 35.7537L36.315 34.986C37.8177 33.2973 38.9595 31.3194 39.6702 29.1735L39.9931 28.1973L36.4329 25.2661V22.7356ZM36.4677 29.1799C36.018 30.2604 35.4304 31.2783 34.7197 32.208L32.3647 31.3258L31.039 30.8292L29.8129 31.5366L27.6208 32.8015L26.3935 33.5095L26.1607 34.9069L25.7476 37.3875C24.5872 37.5384 23.4121 37.5384 22.2517 37.3875L21.8386 34.9069L21.6058 33.5095L20.3785 32.8015L18.1867 31.5366L16.9611 30.8292L15.6354 31.3257L13.2804 32.2075C12.5697 31.278 11.9822 30.2602 11.5324 29.1799L13.4742 27.5815L14.5672 26.6815V21.3196L13.4742 20.4196L11.5323 18.8212C11.982 17.7408 12.5695 16.723 13.2802 15.7932L15.6352 16.6753L16.9609 17.172L18.187 16.4646L20.3791 15.1996L21.6064 14.4915L21.8392 13.0942L22.2523 10.6137C23.4127 10.4629 24.5878 10.4629 25.7482 10.6137L26.1613 13.0942L26.3941 14.4915L27.6214 15.1996L29.8135 16.4646L31.0396 17.172L32.3653 16.6753L34.7203 15.7932C35.4309 16.7231 36.0184 17.7409 36.4683 18.8212L34.5259 20.4196L33.4329 21.3196V26.6815L34.5259 27.5815L36.4677 29.1799Z" fill="#1A1A1A"/>
</svg>
