<svg id="svg-gift" viewBox="0 0 24 24" fill="currentColor" xmlns="http://www.w3.org/2000/svg">
<path d="M18.5 9.00045H16.7653C19.21 7.58405 19.32 5.94215 19.2471 5.27575C19.1382 4.48574 18.7446 3.76268 18.1402 3.24243C17.5358 2.72218 16.7622 2.44054 15.9648 2.45045H15.9082C14.4066 2.47535 12.8936 3.49045 12 6.03155C11.1064 3.49045 9.5934 2.47535 8.0918 2.45045H8.0352C7.23779 2.44054 6.4642 2.72218 5.8598 3.24243C5.25539 3.76268 4.86177 4.48574 4.7529 5.27575C4.68 5.94215 4.7905 7.58405 7.2347 9.00045H5.5C4.83696 9.00045 4.20107 9.26384 3.73223 9.73268C3.26339 10.2015 3 10.8374 3 11.5004V18.5004C3 19.1634 3.26339 19.7993 3.73223 20.2682C4.20107 20.737 4.83696 21.0004 5.5 21.0004H18.5C19.163 21.0004 19.7989 20.737 20.2678 20.2682C20.7366 19.7993 21 19.1634 21 18.5004V11.5004C21 10.8374 20.7366 10.2015 20.2678 9.73268C19.7989 9.26384 19.163 9.00045 18.5 9.00045ZM15.9414 4.45045H15.9648C16.2706 4.43759 16.5705 4.53651 16.8087 4.72872C17.0468 4.92092 17.2068 5.19326 17.2588 5.49485C17.3672 6.47685 16.1221 7.74485 13.1631 8.58865C13.668 5.58875 14.9219 4.46715 15.9414 4.45045ZM6.7414 5.49435C6.79348 5.19289 6.9535 4.9207 7.19159 4.7286C7.42968 4.5365 7.72955 4.43763 8.0352 4.45045H8.0586C9.0781 4.46705 10.332 5.58865 10.8369 8.58815C7.8779 7.74395 6.633 6.47635 6.7414 5.49435ZM19 15.0004H5V12.0004H19V15.0004Z"/>
</svg>
