<svg viewBox="0 0 24 24" xmlns="http://www.w3.org/2000/svg" id="svg-pencil-edit">
<path d="M20.5859 4.58544L19.4141 3.41364C18.8512 2.85173 18.0884 2.53613 17.293 2.53613C16.4976 2.53613 15.7348 2.85173 15.1719 3.41364L3 15.5854V20.9995H8.4141L20.5859 8.82764C21.1478 8.26475 21.4634 7.50189 21.4634 6.70654C21.4634 5.91118 21.1478 5.14833 20.5859 4.58544ZM7.5856 18.9995H5V16.4139L14 7.41394L16.5858 9.99951L7.5856 18.9995ZM19.1718 7.41344L18 8.58534L15.4142 5.99954L16.5861 4.82764C16.774 4.64086 17.0281 4.53602 17.293 4.53602C17.5579 4.53602 17.812 4.64086 17.9999 4.82764L19.172 5.99954C19.3587 6.18737 19.4635 6.44145 19.4635 6.70629C19.4635 6.97113 19.3585 7.22561 19.1718 7.41344Z"/>
</svg>
