<svg viewBox="0 0 24 24" xmlns="http://www.w3.org/2000/svg" id="svg-settings">
<path d="M19.6384 10.71L22.447 8.5529C21.9734 7.12138 21.2116 5.80202 20.2087 4.6761L16.9365 6.03L14.7017 4.74L14.2383 1.229C12.7617 0.923667 11.2383 0.923667 9.76168 1.229L9.29828 4.74L7.06348 6.03L3.79128 4.6761C2.78835 5.80202 2.0266 7.12138 1.55298 8.5529L4.36158 10.71V13.29L1.55298 15.4471C2.0266 16.8786 2.78835 18.198 3.79128 19.3239L7.06348 17.97L9.29828 19.26L9.76168 22.7708C11.2383 23.0761 12.7617 23.0761 14.2383 22.7708L14.7017 19.26L16.9365 17.97L20.2087 19.3241C21.2116 18.1982 21.9734 16.8788 22.447 15.4473L19.6384 13.29V10.71ZM12 15.5C11.3078 15.5 10.6311 15.2947 10.0555 14.9101C9.47992 14.5256 9.03131 13.9789 8.76641 13.3394C8.5015 12.6999 8.43219 11.9961 8.56724 11.3172C8.70228 10.6383 9.03563 10.0146 9.52511 9.52513C10.0146 9.03564 10.6382 8.7023 11.3172 8.56725C11.9961 8.4322 12.6998 8.50152 13.3394 8.76642C13.9789 9.03133 14.5256 9.47993 14.9101 10.0555C15.2947 10.6311 15.5 11.3078 15.5 12C15.4989 12.9279 15.1298 13.8176 14.4737 14.4737C13.8175 15.1299 12.9279 15.4989 12 15.5Z"/>
</svg>
