<svg id="svg-smile" viewBox="0 0 48 47" fill="none" xmlns="http://www.w3.org/2000/svg">
<path fill-rule="evenodd" clip-rule="evenodd" d="M24 0.347656C36.882 0.347656 47.325 10.7907 47.325 23.6742C47.325 36.5562 36.882 46.9992 24 46.9992C11.118 46.9992 0.675049 36.5562 0.675049 23.6742C0.675049 10.7922 11.118 0.347656 24 0.347656Z" fill="#A5D1FE"/>
<path d="M19.7571 26.7429L17.636 28.864C18.4717 29.6999 19.4639 30.3627 20.5558 30.8151C21.6477 31.2673 22.8182 31.5001 24 31.5001C25.182 31.5001 26.3523 31.2673 27.4442 30.8151C28.5361 30.3627 29.5284 29.6999 30.3641 28.864L28.2429 26.7429C27.0998 27.8338 25.5803 28.4426 24 28.4426C22.4198 28.4426 20.9003 27.8338 19.7571 26.7429ZM24 9C21.0333 9 18.1332 9.87974 15.6665 11.528C13.1997 13.1762 11.2771 15.5189 10.1418 18.2598C9.0065 21.0006 8.70945 24.0167 9.28823 26.9263C9.867 29.8361 11.2956 32.5088 13.3934 34.6067C15.4912 36.7044 18.1639 38.133 21.0737 38.7118C23.9834 39.2905 26.9994 38.9935 29.7402 37.8582C32.4812 36.7229 34.8238 34.8003 36.472 32.3335C38.1202 29.8668 39 26.9667 39 24C39 22.0302 38.6119 20.0796 37.8582 18.2598C37.1045 16.4399 35.9995 14.7863 34.6067 13.3934C33.2138 12.0005 31.5602 10.8956 29.7402 10.1418C27.9204 9.38799 25.9698 9 24 9ZM24 36C21.6267 36 19.3066 35.2962 17.3332 33.9777C15.3598 32.659 13.8217 30.785 12.9135 28.5922C12.0052 26.3995 11.7676 23.9866 12.2306 21.6589C12.6936 19.3311 13.8365 17.193 15.5147 15.5147C17.193 13.8365 19.3311 12.6936 21.659 12.2306C23.9867 11.7676 26.3996 12.0052 28.5923 12.9134C30.785 13.8217 32.659 15.3598 33.9777 17.3332C35.2962 19.3065 36 21.6265 36 24C35.9964 27.1815 34.731 30.2316 32.4813 32.4813C30.2316 34.731 27.1815 35.9964 24 36Z" fill="#1A1A1A"/>
</svg>
