<svg id="svg-telegram" viewBox="0 0 48 48" fill="none" xmlns="http://www.w3.org/2000/svg">
<path d="M0 23.04C0 12.1788 0 6.74826 3.37413 3.37413C6.74826 0 12.1788 0 23.04 0H24.96C35.8212 0 41.2517 0 44.6259 3.37413C48 6.74826 48 12.1788 48 23.04V24.96C48 35.8212 48 41.2517 44.6259 44.6259C41.2517 48 35.8212 48 24.96 48H23.04C12.1788 48 6.74826 48 3.37413 44.6259C0 41.2517 0 35.8212 0 24.96V23.04Z" fill="#00ABE8"/>
<path fill-rule="evenodd" clip-rule="evenodd" d="M34.9792 13.4603L9.94823 23.6544C9.7667 23.7244 9.61108 23.8452 9.50146 24.0013C9.39184 24.1574 9.33325 24.3416 9.33325 24.5301C9.33325 24.7186 9.39184 24.9028 9.50146 25.0589C9.61108 25.215 9.7667 25.3358 9.94823 25.4058L14.6052 26.8204C15.342 27.0398 16.1209 27.0952 16.8831 26.9825C17.6454 26.8697 18.3712 26.5916 19.0059 26.1692L29.5539 19.1411C29.6292 19.1036 29.7156 19.092 29.7987 19.1083C29.8818 19.1245 29.9567 19.1676 30.011 19.2304C30.0652 19.2932 30.0957 19.372 30.0972 19.4538C30.0988 19.5355 30.0714 19.6153 30.0196 19.68L21.9398 27.1348C21.7343 27.3293 21.5758 27.5652 21.4757 27.8256C21.3757 28.086 21.3365 28.3645 21.361 28.6412C21.3854 28.9179 21.473 29.186 21.6173 29.4263C21.7616 29.6666 21.9592 29.8732 22.1959 30.0313L30.8811 35.6897C31.1525 35.8621 31.4643 35.9666 31.7881 35.9936C32.1119 36.0207 32.4376 35.9695 32.7357 35.8447C33.0339 35.7199 33.295 35.5254 33.4957 35.2788C33.6963 35.0322 33.83 34.7413 33.8848 34.4323L37.3076 15.2566C37.3604 14.967 37.3314 14.6691 37.2236 14.394C37.1159 14.1189 36.9334 13.8769 36.6953 13.6932C36.4572 13.5095 36.1723 13.391 35.8703 13.35C35.5684 13.309 35.2606 13.3471 34.9792 13.4603Z" fill="white"/>
</svg>