<svg width="123" height="50" viewBox="0 0 123 50" fill="none" xmlns="http://www.w3.org/2000/svg">
<path d="M57.4346 18.1356L66.2925 9.28904L79.6033 22.5439C79.8035 21.434 79.914 20.2925 79.914 19.1251C79.914 8.56264 71.3514 0 60.789 0C50.2267 0 41.6641 8.56264 41.6641 19.1251C41.6641 21.2065 42.0011 23.2085 42.6162 25.0842L53.3698 14.0703L57.4346 18.1356Z" fill="white"/>
<path d="M57.4275 26.7186L53.3622 22.6538L45.5645 30.6931C49.0579 35.2835 54.5774 38.249 60.791 38.249C67.8244 38.249 73.9672 34.4499 77.2892 28.7941L66.2945 17.8516L57.4275 26.7186Z" fill="white"/>
<path d="M122.423 0.896484H107.569L97.6272 18.3215L97.1684 19.1255V0.896484H83.4766V37.3547H97.1684V19.1255L97.6272 19.9296L107.569 37.3547H122.423L112.052 19.1255L122.423 0.896484Z" fill="white"/>
<path d="M4.6101 46.8238H2.95656V49.9334H2.16797V46.0742H4.6101V46.8238Z" fill="white"/>
<path d="M7.86638 48.0039C7.86638 48.7258 8.3847 49.2491 9.0793 49.2491C9.77387 49.2491 10.2922 48.7258 10.2922 48.0039C10.2922 47.2812 9.77387 46.7574 9.0793 46.7574C8.3847 46.7574 7.86638 47.2812 7.86638 48.0039ZM11.0913 48.0039C11.0913 49.1396 10.2145 49.9991 9.0793 49.9991C7.94314 49.9991 7.07227 49.1396 7.07227 48.0039C7.07227 46.8674 7.94314 46.0078 9.0793 46.0078C10.2145 46.0078 11.0913 46.8674 11.0913 48.0039Z" fill="white"/>
<path d="M16.0423 47.3807C16.0423 47.0391 15.8437 46.8242 15.4354 46.8242H14.6364V47.9377H15.4354C15.8437 47.9377 16.0423 47.7173 16.0423 47.3807ZM16.8413 47.3698C16.8413 48.1803 16.2959 48.6872 15.469 48.6872H14.6364V49.9337H13.8477V46.0742H15.469C16.2959 46.0742 16.8413 46.5589 16.8413 47.3698Z" fill="white"/>
<path d="M22.8927 46.0742V49.9332H22.1046V48.3341H20.3901V49.9332H19.6016V46.0742H20.3901V47.5847H22.1046V46.0742H22.8927Z" fill="white"/>
<path d="M26.4484 48.0058C26.4484 48.7277 26.9667 49.251 27.6613 49.251C28.3559 49.251 28.8742 48.7277 28.8742 48.0058C28.8742 47.2832 28.3559 46.7593 27.6613 46.7593C26.9667 46.7593 26.4484 47.2832 26.4484 48.0058ZM29.6734 48.0058C29.6734 49.1416 28.7966 50.001 27.6613 50.001C26.5252 50.001 25.6543 49.1416 25.6543 48.0058C25.6543 46.8693 26.5252 46.0098 27.6613 46.0098C28.7966 46.0098 29.6734 46.8693 29.6734 48.0058Z" fill="white"/>
<path d="M35.627 46.0742V49.9332H34.8388V46.8238H33.7968L33.4879 48.748C33.3447 49.6466 32.964 49.9991 32.413 49.9991C32.2917 49.9991 32.1431 49.9832 32.0273 49.9614V49.2496C32.0987 49.2605 32.1817 49.2668 32.2477 49.2668C32.518 49.2668 32.6388 49.1396 32.711 48.6709L33.1299 46.0742H35.627Z" fill="white"/>
<path d="M42.7578 49.9337H41.9696V46.0747H42.7578V49.9337ZM40.7181 48.7149C40.7181 48.406 40.5473 48.2633 40.1779 48.2633H39.3452V49.1838H40.1606C40.5304 49.1838 40.7181 49.0239 40.7181 48.7149ZM41.5117 48.7262C41.5117 49.5035 41.0156 49.9337 40.1888 49.9337H38.5566V46.0742H39.3452V47.5247H40.2052C41.0484 47.5247 41.5117 47.9436 41.5117 48.7262Z" fill="white"/>
<path d="M49.7921 49.9332L48.4306 48.147V49.9332H47.642V48.147L46.2746 49.9332H45.3047L46.8152 47.9481L45.387 46.0742H46.3468L47.642 47.7614V46.0742H48.4306V47.7614L49.7208 46.0742H50.6797L49.2519 47.9481L50.7624 49.9332H49.7921Z" fill="white"/>
<path d="M56.7171 46.0742V49.9332H55.9288V48.3341H54.2145V49.9332H53.4258V46.0742H54.2145V47.5847H55.9288V46.0742H56.7171Z" fill="white"/>
<path d="M63.8457 49.9337H63.0576V46.0747H63.8457V49.9337ZM61.8061 48.7149C61.8061 48.406 61.6352 48.2633 61.2659 48.2633H60.4333V49.1838H61.249C61.6189 49.1838 61.8061 49.0239 61.8061 48.7149ZM62.5997 48.7262C62.5997 49.5035 62.1035 49.9337 61.2768 49.9337H59.6445V46.0742H60.4333V47.5247H61.2932C62.1368 47.5247 62.5997 47.9436 62.5997 48.7262Z" fill="white"/>
<path d="M67.3533 44.7915V44.6426H67.9765V44.7693C67.9765 44.9565 68.0978 45.0782 68.2799 45.0782C68.4616 45.0782 68.5825 44.9565 68.5825 44.7693V44.6426H69.2004V44.7915C69.2004 45.3481 68.7592 45.6728 68.2799 45.6728C67.7943 45.6728 67.3533 45.3481 67.3533 44.7915ZM69.9335 46.0758V49.9353H69.1449V48.3199L69.2167 47.2333L67.535 49.9353H66.6309V46.0758H67.4196V47.6912L67.3477 48.7774L69.0295 46.0758H69.9335Z" fill="white"/>
<path d="M78.8184 49.9332L77.3687 48.1303V49.9332H76.5801V46.0742H77.3687V47.7831L78.7415 46.0742H79.7168L78.2009 47.9431L79.8054 49.9332H78.8184Z" fill="white"/>
<path d="M82.7354 48.0039C82.7354 48.7258 83.2537 49.2491 83.9483 49.2491C84.6429 49.2491 85.1613 48.7258 85.1613 48.0039C85.1613 47.2812 84.6429 46.7574 83.9483 46.7574C83.2537 46.7574 82.7354 47.2812 82.7354 48.0039ZM85.9603 48.0039C85.9603 49.1396 85.0841 49.9991 83.9483 49.9991C82.8121 49.9991 81.9414 49.1396 81.9414 48.0039C81.9414 46.8674 82.8121 46.0078 83.9483 46.0078C85.0841 46.0078 85.9603 46.8674 85.9603 48.0039Z" fill="white"/>
<path d="M92.4807 46.0742V49.9332H91.6921V47.1658L90.6173 48.7921H90.5456L89.4762 47.1658V49.9332H88.6875V46.0742H89.5916L90.5842 47.5574L91.5713 46.0742H92.4807Z" fill="white"/>
<path d="M98.6936 49.9332H97.9054V46.8238H96.191V49.9332H95.4023V46.0742H96.191H98.6936V49.9332Z" fill="white"/>
<path d="M104.957 46.0742V49.9332H104.169V46.8238H103.127L102.818 48.748C102.675 49.6466 102.295 49.9991 101.743 49.9991C101.622 49.9991 101.473 49.9832 101.357 49.9614V49.2496C101.429 49.2605 101.512 49.2668 101.578 49.2668C101.848 49.2668 101.969 49.1396 102.041 48.6709L102.46 46.0742H104.957Z" fill="white"/>
<path d="M108.675 46.8238V47.6016H110.329V48.351H108.675V49.1838H110.478V49.9334H107.887V46.0742H110.478V46.8238H108.675Z" fill="white"/>
<path d="M115.437 49.9332L113.988 48.1303V49.9332H113.199V46.0742H113.988V47.7831L115.361 46.0742H116.336L114.82 47.9431L116.425 49.9332H115.437Z" fill="white"/>
<path d="M118.582 48.0039C118.582 46.8674 119.425 46.0078 120.578 46.0078C121.498 46.0078 122.215 46.5757 122.441 47.3975H121.598C121.416 47.0004 121.046 46.7574 120.572 46.7574C119.861 46.7574 119.376 47.2812 119.376 48.0039C119.376 48.7258 119.861 49.2491 120.572 49.2491C121.046 49.2491 121.416 49.0065 121.598 48.6095H122.441C122.215 49.4313 121.498 49.9991 120.578 49.9991C119.425 49.9991 118.582 49.1396 118.582 48.0039Z" fill="white"/>
<path d="M19.1204 24.8842C15.9405 24.8842 13.3626 22.3061 13.3626 19.1263C13.3626 15.9464 15.9405 13.3683 19.1204 13.3683C21.1865 13.3683 22.9932 14.46 24.0089 16.0948H37.9992C36.5459 6.9757 28.6484 0.00585938 19.1204 0.00585938C8.56041 0.00585938 0 8.56614 0 19.1263C0 29.6863 8.56041 38.2467 19.1204 38.2467C28.6484 38.2467 36.5459 31.2767 37.9992 22.1576H24.0089C22.9932 23.7921 21.1865 24.8842 19.1204 24.8842Z" fill="white"/>
</svg>
