<svg width="56" height="56" viewBox="0 0 56 56" fill="none" xmlns="http://www.w3.org/2000/svg">
<path d="M55.5 28C55.5 43.1878 43.1878 55.5 28 55.5C12.8122 55.5 0.5 43.1878 0.5 28C0.5 12.8122 12.8122 0.5 28 0.5C43.1878 0.5 55.5 12.8122 55.5 28Z" fill="white" stroke="#E6EBF1"/>
<path d="M24.1225 26.6905L33.7399 17.0855L48.192 31.4769C48.4094 30.2718 48.5294 29.0323 48.5294 27.7648C48.5294 16.2966 39.2327 7 27.7645 7C16.2966 7 7 16.2966 7 27.7648C7 30.0248 7.36592 32.1983 8.03368 34.2349L19.7094 22.2765L24.1225 26.6905Z" fill="#0365B2"/>
<path d="M24.1126 36.0101L19.6989 31.5967L11.2327 40.3252C15.0255 45.3093 21.0183 48.5289 27.7645 48.5289C35.4009 48.5289 42.0706 44.4041 45.6773 38.2635L33.7399 26.3828L24.1126 36.0101Z" fill="#85C7E3"/>
</svg>
