<svg width="64" height="64" viewBox="0 0 64 64" fill="none" xmlns="http://www.w3.org/2000/svg">
<g clip-path="url(#clip0_919_6)">
<path d="M63.5 32C63.5 49.397 49.397 63.5 32 63.5C14.603 63.5 0.5 49.397 0.5 32C0.5 14.603 14.603 0.5 32 0.5C49.397 0.5 63.5 14.603 63.5 32Z" fill="white" stroke="#E6EBF1"/>
<path d="M28.2715 31.4507L38.1992 21.5359L53.1174 36.3915C53.3418 35.1475 53.4657 33.868 53.4657 32.5597C53.4657 20.7215 43.8692 11.125 32.0311 11.125C20.1932 11.125 10.5967 20.7215 10.5967 32.5597C10.5967 34.8925 10.9744 37.1361 11.6637 39.2384L23.7161 26.8943L28.2715 31.4507Z" fill="#0365B2"/>
<path d="M28.2612 41.0706L23.7052 36.5149L14.9658 45.525C18.881 50.6698 25.0672 53.9933 32.031 53.9933C39.9137 53.9933 46.7985 49.7354 50.5216 43.3968L38.1991 31.1328L28.2612 41.0706Z" fill="#85C7E3"/>
<path d="M9.14837 42.7894L5.56985 44.0797L4.73599 41.7676L5.29763 41.565L5.91523 43.2782L8.9324 42.1902L9.14837 42.7894ZM7.61559 37.6845C7.70478 38.0547 7.69982 38.391 7.60189 38.6938C7.50367 38.9967 7.32734 39.2532 7.07231 39.4642C6.817 39.6755 6.49843 39.8276 6.11692 39.9197C5.73511 40.0118 5.38244 40.0217 5.05892 39.9503C4.73541 39.8789 4.46056 39.7314 4.23527 39.5067C4.00968 39.282 3.85287 38.9847 3.7634 38.6146C3.67421 38.2447 3.678 37.9075 3.77593 37.6041C3.87357 37.3001 4.05077 37.0427 4.3058 36.8317C4.56111 36.6204 4.87968 36.4691 5.26149 36.377C5.64301 36.2847 5.99567 36.2742 6.31919 36.3456C6.6427 36.417 6.91667 36.5653 7.14255 36.7909C7.36814 37.0165 7.52611 37.3147 7.61559 37.6845ZM7.03267 37.8253C6.97438 37.5767 6.86946 37.3826 6.71819 37.2441C6.56722 37.1057 6.38039 37.0194 6.1583 36.985C5.93621 36.9506 5.68993 36.9667 5.41975 37.032C5.14898 37.0972 4.92369 37.1952 4.74415 37.3266C4.5649 37.4578 4.43987 37.6192 4.36846 37.8116C4.29705 38.0037 4.29006 38.2249 4.34631 38.4738C4.4046 38.7227 4.50924 38.9159 4.66021 39.0535C4.81119 39.1908 4.99772 39.2765 5.21981 39.3106C5.44161 39.345 5.68818 39.3298 5.95865 39.2645C6.22913 39.1992 6.45384 39.1016 6.63338 38.9713C6.81292 38.8407 6.93883 38.679 7.01023 38.4869C7.08164 38.2948 7.08922 38.0745 7.03267 37.8253ZM7.03442 34.5379L3.23032 34.5697L3.2175 32.9973C3.21691 32.9603 3.2175 32.9128 3.21983 32.8545C3.22187 32.7965 3.2277 32.7426 3.23615 32.693C3.26763 32.4727 3.33932 32.2896 3.45066 32.1454C3.56229 32.0005 3.70306 31.893 3.87444 31.8219C4.04553 31.7507 4.23614 31.7149 4.4457 31.7131C4.65351 31.7114 4.84325 31.7452 5.0155 31.814C5.18775 31.8831 5.33144 31.9886 5.44511 32.1314C5.55907 32.2739 5.63368 32.4546 5.66894 32.6729C5.67623 32.7222 5.68206 32.7758 5.68614 32.8347C5.69022 32.8938 5.69255 32.9413 5.69284 32.9766L5.70042 33.9122L7.02918 33.9011L7.03442 34.5379ZM5.10614 33.9171L5.09856 33.0081C5.09827 32.9728 5.09623 32.9332 5.09244 32.8892C5.08836 32.8452 5.08108 32.8046 5.07 32.7676C5.04289 32.6624 4.99539 32.5791 4.92806 32.5187C4.86044 32.4584 4.78437 32.4161 4.69985 32.3911C4.61503 32.3663 4.53197 32.3546 4.45094 32.3555C4.36992 32.3561 4.28656 32.3689 4.20116 32.3954C4.11606 32.4217 4.04086 32.4654 3.97441 32.5266C3.90796 32.5881 3.86191 32.672 3.83626 32.7781C3.82606 32.8151 3.81936 32.8557 3.81702 32.8997C3.81498 32.9437 3.8144 32.9833 3.8144 33.0189L3.82227 33.9279L5.10614 33.9171ZM7.10029 30.3147L3.33204 29.7933L3.41918 29.1623L5.005 29.3818L5.25216 27.5963L3.66634 27.3768L3.75319 26.7487L7.52145 27.2699L7.4346 27.8983L5.84353 27.6782L5.59637 29.4637L7.18744 29.6837L7.10029 30.3147ZM8.53834 24.2352C8.40719 24.5925 8.21658 24.8697 7.96651 25.067C7.71702 25.2644 7.42789 25.3795 7.09854 25.4136C6.76891 25.4474 6.41945 25.397 6.05105 25.2614C5.68235 25.1262 5.38332 24.9385 5.15423 24.6995C4.92485 24.4605 4.77825 24.1854 4.71559 23.8732C4.65292 23.5611 4.68761 23.2265 4.81876 22.8692C4.94992 22.5121 5.14024 22.2338 5.39031 22.0356C5.64038 21.8374 5.93067 21.7217 6.26002 21.6879C6.58966 21.6538 6.93853 21.7051 7.30723 21.8403C7.67592 21.9758 7.97496 22.1627 8.20433 22.4017C8.43371 22.6409 8.57886 22.9164 8.64152 23.2294C8.70389 23.5424 8.66979 23.8782 8.53834 24.2352ZM7.97554 24.0286C8.06531 23.7893 8.086 23.5695 8.03704 23.3708C7.98836 23.1717 7.88082 22.9959 7.71527 22.8444C7.54972 22.6925 7.33608 22.569 7.07494 22.4731C6.81379 22.3772 6.57188 22.3335 6.34979 22.3428C6.1277 22.3521 5.93388 22.4174 5.76804 22.5375C5.60191 22.6576 5.47309 22.8374 5.38157 23.0761C5.29209 23.3151 5.27169 23.534 5.32065 23.7322C5.3702 23.9303 5.47746 24.1049 5.6433 24.2568C5.80884 24.4089 6.0219 24.5331 6.28334 24.629C6.54448 24.7249 6.78552 24.7683 7.00732 24.7598C7.22912 24.7511 7.42352 24.6864 7.58965 24.5663C7.75578 24.4462 7.88431 24.2673 7.97554 24.0286ZM9.47946 21.5561L9.02216 21.281C9.07055 21.2113 9.10115 21.1466 9.11514 21.0872C9.12942 21.028 9.12388 20.9671 9.09823 20.9053C9.07259 20.8435 9.02479 20.7747 8.95484 20.6978C8.88489 20.6208 8.79279 20.5314 8.67766 20.4294C8.51299 20.2828 8.33666 20.1367 8.14925 19.9919C7.96184 19.8476 7.77502 19.7083 7.58965 19.5742C7.40428 19.4402 7.22853 19.3169 7.06182 19.2044C6.8954 19.0919 6.75142 18.9948 6.62959 18.9135L7.9429 16.7302L11.2028 18.6911L10.8747 19.237L8.12622 17.5839L7.44509 18.7165C7.54156 18.7847 7.65814 18.866 7.79484 18.9616C7.93153 19.0572 8.07842 19.163 8.23494 19.2787C8.39145 19.3947 8.55175 19.5177 8.71584 19.6483C8.87993 19.7785 9.03761 19.9129 9.18975 20.0496C9.32849 20.174 9.44711 20.2947 9.54591 20.4119C9.64501 20.529 9.71409 20.6468 9.75256 20.7654C9.79132 20.884 9.79045 21.0082 9.75023 21.137C9.70971 21.2658 9.61907 21.4057 9.47946 21.5561ZM12.1005 17.3801L9.25038 14.8605L9.67211 14.3837L10.6677 15.2636L11.2874 14.5626C11.3107 14.5364 11.3427 14.5011 11.3844 14.458C11.4261 14.4148 11.4669 14.3781 11.5063 14.3469C11.6759 14.2053 11.8511 14.1178 12.0306 14.0849C12.2101 14.0517 12.3867 14.066 12.5616 14.1275C12.7365 14.189 12.9018 14.2892 13.0574 14.4271C13.2142 14.5658 13.3343 14.7174 13.4168 14.8832C13.4992 15.0493 13.5354 15.2236 13.5249 15.4058C13.5144 15.588 13.4488 15.7725 13.329 15.9584C13.3019 15.9998 13.2702 16.0438 13.2337 16.0901C13.1973 16.1368 13.1664 16.1744 13.1419 16.2021L12.1005 17.3801ZM12.0749 16.5078L12.6773 15.8264C12.7015 15.7987 12.7272 15.7672 12.7531 15.7325C12.7791 15.6978 12.8012 15.6634 12.8204 15.6285C12.8694 15.5332 12.8892 15.4402 12.8793 15.3504C12.8697 15.2604 12.8405 15.1773 12.7936 15.1018C12.7467 15.0257 12.6925 14.9619 12.6322 14.9083C12.5712 14.8547 12.501 14.8089 12.4209 14.7722C12.3407 14.7354 12.2553 14.7174 12.165 14.7185C12.0746 14.72 11.9848 14.7509 11.8959 14.8115C11.8624 14.8334 11.8304 14.859 11.7992 14.8893C11.7677 14.9191 11.7397 14.9485 11.7152 14.9762L11.1131 15.6573L12.0749 16.5078ZM14.2378 14.9625L11.3873 12.4428L11.8094 11.9657L14.6595 14.4851L14.2378 14.9625ZM15.5974 13.6087L15.6406 11.1986L13.4823 10.4449L14.1026 10.0036L16.0577 10.7229L15.0606 9.32191L15.5797 8.95234L16.577 10.3537L16.538 8.27062L17.1582 7.82936L17.1629 10.115L19.4543 10.8646L18.8146 11.3196L16.7822 10.6422L17.7854 12.052L17.2663 12.4213L16.2631 11.0115L16.2392 13.1522L15.5974 13.6087ZM20.6044 10.2942L19.0993 6.80022L19.6843 6.5484L20.3176 8.01851L21.9731 7.30561L21.3397 5.8352L21.9224 5.58426L23.4272 9.07796L22.8448 9.32891L22.2092 7.85384L20.554 8.56704L21.1894 10.0421L20.6044 10.2942ZM24.9395 8.59822L24.0465 4.90021L24.6656 4.75069L24.9774 6.04243L25.8871 5.82296C25.9215 5.81451 25.9678 5.80431 26.0264 5.79294C26.0853 5.78129 26.1398 5.77429 26.1899 5.77167C26.4102 5.75272 26.6038 5.78129 26.7699 5.85706C26.9357 5.93284 27.0727 6.04564 27.1806 6.19632C27.2887 6.34671 27.3668 6.52363 27.4155 6.72561C27.4647 6.92934 27.4758 7.12228 27.4484 7.30561C27.4213 7.48893 27.3511 7.65244 27.238 7.79584C27.1249 7.93924 26.9655 8.05261 26.7611 8.13655C26.7148 8.15492 26.6635 8.17299 26.6073 8.19018C26.5507 8.20738 26.5041 8.22049 26.4679 8.22924L24.9395 8.59822ZM25.4184 7.86841L26.3021 7.65507C26.3382 7.64632 26.377 7.63496 26.4181 7.62155C26.4592 7.60785 26.4974 7.5924 26.5329 7.57491C26.628 7.52449 26.6973 7.45979 26.7407 7.38051C26.7842 7.30124 26.8081 7.21642 26.8127 7.12753C26.8177 7.03863 26.8101 6.95528 26.7912 6.87658C26.7719 6.79789 26.7407 6.72007 26.6962 6.644C26.6516 6.56793 26.5915 6.50439 26.5169 6.45339C26.442 6.40267 26.3505 6.37702 26.2432 6.37557C26.2033 6.3744 26.1622 6.37702 26.1194 6.38373C26.0765 6.39043 26.0369 6.3983 26.0007 6.40704L25.117 6.62039L25.4184 7.86841ZM28.0762 7.84072L27.1835 4.14271L27.8025 3.99319L28.6953 7.69121L28.0762 7.84072ZM30.2959 7.63087L30.1922 3.82823L30.8369 3.81045L30.9098 6.49098L32.6017 3.76265L33.2464 3.74487L33.3498 7.54781L32.7054 7.5653L32.6323 4.88476L30.9406 7.61339L30.2959 7.63087ZM31.7078 3.46449C31.56 3.46857 31.4251 3.43622 31.3023 3.36714C31.1799 3.29836 31.0805 3.20393 31.0048 3.0853C30.9293 2.96697 30.8896 2.83407 30.8853 2.6863L31.3822 2.6726C31.3845 2.75712 31.4163 2.82765 31.4769 2.88507C31.5376 2.9422 31.6095 2.97018 31.6941 2.96814C31.7789 2.9658 31.8503 2.93374 31.9077 2.87312C31.9651 2.8125 31.9919 2.74051 31.9899 2.65599L32.4865 2.64258C32.4906 2.79035 32.4583 2.92529 32.3892 3.0477C32.3201 3.17041 32.226 3.26979 32.1065 3.34528C31.9867 3.42077 31.8541 3.46041 31.7078 3.46449ZM42.0705 9.65767L43.8263 6.28288L44.3911 6.57667L43.5768 8.14238L45.7394 7.27821L46.4334 7.63904L44.1212 8.53876L44.7764 11.0651L44.0589 10.6921L43.455 8.37701L42.6357 9.95175L42.0705 9.65767ZM46.8953 12.6186C46.5858 12.3974 46.3692 12.1397 46.2451 11.8465C46.1209 11.5533 46.0865 11.2441 46.1413 10.9174C46.1961 10.5909 46.3375 10.2674 46.566 9.94796C46.7942 9.62823 47.0545 9.39011 47.3459 9.23243C47.6368 9.07476 47.9411 9.00656 48.2588 9.02871C48.5765 9.05115 48.8898 9.17327 49.1993 9.39448C49.5088 9.6157 49.7268 9.87335 49.8513 10.1671C49.976 10.4606 50.011 10.771 49.9559 11.0978C49.9011 11.4245 49.7595 11.7474 49.531 12.0672C49.3028 12.3866 49.0431 12.6253 48.7516 12.783C48.4602 12.9406 48.1559 13.0077 47.8376 12.9847C47.5193 12.9619 47.2049 12.8398 46.8953 12.6186ZM47.2439 12.1307C47.4508 12.2808 47.6569 12.3586 47.8618 12.3644C48.067 12.3703 48.2646 12.3134 48.4549 12.1939C48.6452 12.0747 48.8207 11.9016 48.9827 11.6751C49.1445 11.4487 49.2509 11.2272 49.3007 11.0106C49.3503 10.7938 49.3392 10.59 49.2672 10.398C49.1955 10.2059 49.0565 10.0339 48.8507 9.88238C48.6438 9.73258 48.4383 9.65505 48.234 9.6498C48.03 9.64456 47.8329 9.70197 47.6426 9.82147C47.4523 9.94068 47.276 10.1132 47.1142 10.3397C46.9522 10.5661 46.8464 10.7871 46.7959 11.003C46.7455 11.2193 46.756 11.4239 46.828 11.616C46.8997 11.8078 47.0381 11.9794 47.2439 12.1307ZM49.3806 14.6261L52.155 12.0231L52.5473 12.4414L51.4826 15.2449L54.3485 14.3612L54.7408 14.7795L51.9664 17.3822L51.5595 16.9488L53.338 15.2805L50.7603 16.0968L50.5866 15.9118L51.5674 13.3933L49.7895 15.0619L49.3806 14.6261ZM52.8635 18.7173L56.2054 16.8995L57.6793 19.6092L54.3374 21.4267L54.0328 20.8671L56.8503 19.3349L55.9853 17.7445L53.1678 19.2766L52.8635 18.7173ZM54.9486 22.6063L55.4528 22.4308C55.4755 22.5124 55.5056 22.5774 55.542 22.6264C55.5787 22.6753 55.6291 22.71 55.693 22.7298C55.7565 22.7497 55.8402 22.7569 55.9439 22.7523C56.048 22.7479 56.1753 22.7342 56.3278 22.7112C56.5458 22.6782 56.7708 22.6363 57.0019 22.585C57.233 22.5337 57.4592 22.4792 57.681 22.4226C57.9028 22.3658 58.1097 22.3098 58.303 22.2539C58.4959 22.1979 58.6626 22.1493 58.8031 22.1079L59.6399 24.5144L56.0468 25.7639L55.8375 25.1623L58.8669 24.1087L58.4327 22.8607C58.3184 22.891 58.1811 22.9286 58.0206 22.9723C57.8594 23.0163 57.6839 23.0615 57.4948 23.1076C57.3059 23.1536 57.1089 23.1979 56.9034 23.2405C56.6982 23.283 56.4942 23.3186 56.2916 23.3477C56.1074 23.3748 55.9387 23.3885 55.7854 23.3897C55.6318 23.3909 55.4971 23.3684 55.3814 23.3221C55.2654 23.2757 55.1704 23.1956 55.0975 23.0822C55.0244 22.9685 54.9748 22.8097 54.9486 22.6063ZM56.4595 27.3034L60.2219 26.74L60.586 29.1708L59.9955 29.2591L59.7256 27.4582L58.7982 27.5972L59.0208 29.0842L58.4303 29.1728L58.2077 27.6855L57.1444 27.8449L57.414 29.6455L56.8235 29.7341L56.4595 27.3034ZM56.9538 31.2133L60.7579 31.1815L60.7632 31.8186L58.9987 31.8332L60.776 33.3383L60.7824 34.1206L58.904 32.5001L56.9795 34.2634L56.9725 33.4543L58.7346 31.8356L56.9594 31.8504L56.9538 31.2133ZM56.5023 36.8507C56.5711 36.4764 56.7122 36.1707 56.925 35.934C57.1377 35.6971 57.403 35.5344 57.7218 35.4453C58.041 35.3561 58.3936 35.3465 58.7798 35.4173C59.166 35.4881 59.4924 35.6225 59.7591 35.8189C60.0255 36.0156 60.2167 36.2619 60.3312 36.5589C60.4461 36.8559 60.4688 37.1914 60.4 37.5659C60.3207 37.9973 60.1476 38.3371 59.8789 38.5854C59.6107 38.8335 59.2826 38.9818 58.8958 39.0311L58.8375 38.3674C59.0952 38.3394 59.3091 38.2505 59.479 38.1007C59.6489 37.9509 59.7591 37.7367 59.8104 37.4575C59.8564 37.2062 59.8384 36.9871 59.7565 36.7994C59.6746 36.6114 59.5399 36.4569 59.3519 36.3354C59.1637 36.2138 58.9325 36.1267 58.6591 36.0748C58.3855 36.0244 58.1395 36.0232 57.9206 36.0701C57.7017 36.1168 57.5201 36.2132 57.3767 36.3607C57.233 36.5082 57.1383 36.7076 57.0923 36.9588C57.0413 37.238 57.0687 37.4776 57.175 37.6781C57.2814 37.8786 57.4493 38.0375 57.6787 38.1549L57.3887 38.7545C57.0445 38.5714 56.7915 38.3161 56.6286 37.9891C56.4656 37.6618 56.4234 37.282 56.5023 36.8507Z" fill="#0365B2"/>
<path d="M13.2328 53.3497L13.3911 51.8632L14.8749 51.6817L14.9306 52.111L13.7846 52.2506L13.663 53.3986L13.2328 53.3497ZM12.4648 52.5936L12.6231 51.1072L14.1066 50.9256L14.1626 51.3546L13.0145 51.4928L12.8947 52.6426L12.4648 52.5936ZM15.1302 55.9075C14.8227 55.6837 14.6082 55.4246 14.4867 55.1305C14.3651 54.8361 14.3331 54.5269 14.3905 54.2007C14.4479 53.8746 14.5919 53.5522 14.8227 53.2345C15.0536 52.9169 15.3159 52.6805 15.6082 52.5251C15.9005 52.3698 16.2054 52.3039 16.5228 52.329C16.8402 52.3538 17.1521 52.4782 17.4598 52.7018C17.8148 52.9597 18.0463 53.2628 18.1538 53.612C18.2614 53.9614 18.2535 54.3214 18.1305 54.6913L17.5071 54.4572C17.5933 54.2127 17.6056 53.9813 17.5441 53.7635C17.4826 53.5455 17.3368 53.3535 17.1075 53.1868C16.9008 53.0369 16.6956 52.9582 16.4907 52.951C16.2861 52.9437 16.0885 52.9982 15.8976 53.1156C15.707 53.2325 15.5286 53.4033 15.3634 53.6274C15.1999 53.8524 15.0923 54.0739 15.0399 54.2914C14.9874 54.5091 14.9959 54.7146 15.0667 54.9075C15.1375 55.1005 15.2762 55.2721 15.4829 55.4222C15.7123 55.5889 15.9405 55.6676 16.1669 55.6583C16.3937 55.649 16.6097 55.5662 16.8143 55.4103L17.2296 55.9308C16.9157 56.1619 16.5761 56.28 16.2109 56.2855C15.8455 56.2911 15.4849 56.1652 15.1302 55.9075ZM18.8979 58.2118C18.561 58.0351 18.3112 57.8098 18.148 57.5368C17.985 57.2634 17.9084 56.9617 17.9177 56.6309C17.9273 56.2995 18.0226 55.96 18.2048 55.612C18.387 55.264 18.612 54.9923 18.8787 54.7959C19.1456 54.5997 19.4374 54.4901 19.7551 54.4686C20.0725 54.447 20.3995 54.5248 20.7367 54.7015C21.0736 54.8778 21.3246 55.1028 21.4884 55.3765C21.6522 55.6502 21.7291 55.953 21.7198 56.2841C21.7105 56.6149 21.6143 56.9544 21.4321 57.3024C21.25 57.6501 21.0255 57.9224 20.7589 58.1188C20.4919 58.3149 20.1998 58.4234 19.8816 58.4444C19.5633 58.4656 19.2351 58.3881 18.8979 58.2118ZM19.1762 57.6804C19.4015 57.8005 19.6166 57.8495 19.8204 57.8268C20.0238 57.8046 20.2118 57.7207 20.3837 57.5764C20.556 57.4318 20.7061 57.2363 20.8352 56.9897C20.9643 56.7431 21.0392 56.5091 21.0588 56.2876C21.0783 56.0663 21.0392 55.8658 20.9416 55.6854C20.8442 55.5053 20.6831 55.3543 20.4584 55.2325C20.2331 55.1127 20.0188 55.064 19.816 55.0868C19.6128 55.1101 19.426 55.1937 19.2538 55.3383C19.0818 55.4829 18.9308 55.6781 18.8017 55.9247C18.6726 56.171 18.598 56.4044 18.5776 56.6254C18.5575 56.8463 18.5962 57.0477 18.6936 57.2278C18.7909 57.4082 18.9515 57.5589 19.1762 57.6804ZM21.5365 59.326L22.7798 55.7309L23.3817 55.939L22.8046 57.6067L24.8171 56.4356L25.5562 56.6909L23.4012 57.9194L24.4175 60.3225L23.6533 60.0582L22.7183 57.8565L22.138 59.5341L21.5365 59.326ZM25.7008 59.8559L26.8264 58.8725L26.1228 57.5534L25.7396 57.7545L26.2834 58.7728L25.4137 59.5318L25.7008 59.8559ZM26.7608 60.05L27.8867 59.0666L27.1829 57.7478L26.7996 57.9489L27.3461 58.9675L26.4738 59.7262L26.7608 60.05ZM32.5495 61.3548C32.1694 61.3633 31.8418 61.2869 31.5667 61.1266C31.2918 60.9663 31.0791 60.7396 30.9272 60.4452C30.7754 60.1508 30.6943 59.8072 30.6856 59.4146C30.6772 59.022 30.7424 58.6752 30.8809 58.3744C31.0196 58.0736 31.2222 57.8367 31.4897 57.6641C31.757 57.4919 32.0811 57.4015 32.4612 57.3934C32.8998 57.3834 33.2676 57.4846 33.5649 57.6973C33.8619 57.9098 34.0735 58.2013 34.2 58.57L33.562 58.7615C33.4824 58.5146 33.3521 58.3228 33.1714 58.187C32.9904 58.0509 32.7582 57.9865 32.4746 57.9929C32.2195 57.9984 32.0085 58.0605 31.8409 58.1785C31.6736 58.2969 31.5498 58.4598 31.469 58.6688C31.388 58.8775 31.3495 59.1214 31.3539 59.3997C31.36 59.6778 31.4084 59.9191 31.4988 60.124C31.5888 60.3289 31.72 60.4875 31.8934 60.5979C32.0665 60.7087 32.281 60.7611 32.5361 60.7553C32.8197 60.7492 33.0487 60.6734 33.2236 60.5286C33.3982 60.3837 33.52 60.1873 33.5882 59.9392L34.2341 60.1019C34.1242 60.4761 33.9257 60.7754 33.6384 61.001C33.351 61.2269 32.9881 61.3452 32.5495 61.3548ZM34.9811 61.1829L35.5302 57.2322L36.4498 57.0768L38.2661 60.6282L37.62 60.7372L35.9782 57.5531L36.119 57.5292L35.6273 61.0739L34.9811 61.1829ZM35.5031 60.259L35.404 59.6728L37.3734 59.3403L37.4722 59.9261L35.5031 60.259ZM39.2282 60.405L38.0481 56.7883L38.5931 56.6105L40.6797 58.7644L41.0947 55.7944L41.6395 55.6166L42.8196 59.2333L42.2544 59.4175L41.4981 57.0996L41.1443 59.7798L40.9032 59.8585L39.0394 57.9017L39.7957 60.2199L39.2282 60.405ZM43.7076 58.7976L43.072 54.8597L43.9052 54.4412L46.6846 57.3024L46.0993 57.5962L43.5945 55.0349L43.7222 54.9708L44.2932 58.5035L43.7076 58.7976ZM43.9353 57.7609L43.6683 57.2298L45.4532 56.3333L45.7199 56.8647L43.9353 57.7609ZM47.4989 56.7431L45.3313 53.6169L46.6231 52.721C46.6534 52.7 46.693 52.6738 46.7423 52.6429C46.7915 52.6117 46.8393 52.5863 46.8848 52.5654C47.0848 52.4674 47.2762 52.4237 47.4584 52.4345C47.6406 52.4453 47.809 52.5009 47.9641 52.6027C48.1188 52.7041 48.2561 52.8414 48.3756 53.0136C48.494 53.1844 48.5729 53.3602 48.6129 53.5415C48.6528 53.7227 48.6464 53.9005 48.5928 54.0751C48.5391 54.2494 48.4316 54.4129 48.2713 54.5648C48.2348 54.5986 48.1935 54.6338 48.1471 54.6703C48.1008 54.7067 48.0626 54.7353 48.0334 54.7554L47.2652 55.2882L48.0221 56.3803L47.4989 56.7431ZM46.9265 54.7997L47.6732 54.282C47.7024 54.2619 47.7338 54.2377 47.7679 54.2098C47.802 54.1818 47.8312 54.1529 47.8557 54.1232C47.9274 54.0413 47.9696 53.9553 47.9816 53.8656C47.9932 53.7761 47.9856 53.6892 47.9583 53.6053C47.9311 53.521 47.8941 53.4461 47.8478 53.3797C47.8017 53.3129 47.744 53.2512 47.6744 53.1955C47.6047 53.1398 47.526 53.1022 47.438 53.0818C47.35 53.0614 47.2547 53.0707 47.1527 53.1092C47.1162 53.1218 47.0789 53.1392 47.0413 53.162C47.0037 53.1847 46.9705 53.2066 46.9417 53.2267L46.1946 53.7446L46.9265 54.7997ZM50.224 54.7866L48.554 51.164L49.2445 50.5371L52.6901 52.547L52.2051 52.9874L49.1046 51.1926L49.2101 51.0964L50.7087 54.3462L50.224 54.7866ZM50.1646 53.7271L49.765 53.287L51.2436 51.9443L51.6432 52.3844L50.1646 53.7271Z" fill="#0365B2"/>
</g>
<defs>
<clipPath id="clip0_919_6">
<rect width="64" height="64" fill="white"/>
</clipPath>
</defs>
</svg>
